<svg width="429" height="470" viewBox="0 0 429 470" fill="none" xmlns="http://www.w3.org/2000/svg">
<path d="M204.42 451.932C317.095 451.932 408.88 410.99 426.988 296.775C445.097 182.559 288.498 235.748 291.409 132.196C294.32 28.6868 259.816 -31.483 165.334 17.0811C70.8526 65.6453 85.1511 167.913 71.1951 215.363C44.0536 307.438 -105.567 451.932 204.42 451.932Z" fill="#4E46B4" fill-opacity="0.12"/>
<path d="M59.5917 225.217C69.5034 197.691 68.2159 172.018 56.7159 167.874C45.216 163.73 27.8584 182.684 17.9467 210.21C8.03503 237.735 9.32253 263.408 20.8225 267.552C32.3224 271.696 49.6799 252.742 59.5917 225.217Z" fill="#4E46B4" fill-opacity="0.12"/>
<path d="M388.657 170.367C403.398 157.479 401.145 130.774 383.625 110.72C366.105 90.6661 339.952 84.857 325.211 97.7451C310.47 110.633 312.722 137.338 330.243 157.392C347.763 177.446 373.916 183.255 388.657 170.367Z" fill="#4E46B4" fill-opacity="0.12"/>
<path d="M273.73 68.2575C273.73 68.2575 259.474 68.1719 256.777 88.1714C254.08 108.171 257.933 117.036 248.215 126.072C238.497 135.108 254.422 140.162 267.48 131.596C280.579 123.031 273.73 68.2575 273.73 68.2575Z" fill="#3B2645"/>
<path d="M273.73 68.2574C273.73 68.2574 260.63 75.3665 260.373 95.366C260.159 113.053 264.697 126.757 257.762 135.579C260.887 134.98 264.269 133.695 267.48 131.596C280.579 123.031 273.73 68.2574 273.73 68.2574Z" fill="#3B2645"/>
<path d="M290.684 114.038L286.103 133.01L256.778 130.74C256.778 130.74 264.227 119.092 268.166 98.9207L290.684 114.038Z" fill="#FFEDE5"/>
<path d="M273.303 107.528L288.029 125.13L290.684 114.038L273.303 107.528Z" fill="#DF845C"/>
<path d="M306.309 74.0389C306.309 74.0389 311.96 81.9616 309.477 90.1413C306.994 98.321 307.122 99.7342 306.694 102.775C306.266 105.773 298.988 119.52 295.521 120.034C292.053 120.547 270.991 112.282 266.838 100.634C262.685 88.985 290.084 56.6089 306.309 74.0389Z" fill="#FFEDE5"/>
<path d="M266.964 104.488L272.7 95.3661L275.312 96.3939C275.312 96.3939 277.495 95.7944 278.394 87.529C278.394 87.529 284.944 84.7454 286.186 78.4072C286.186 78.4072 308.104 63.8465 310.116 86.2871C310.116 86.2871 313.413 76.009 303.524 69.0284C293.635 62.0479 281.177 60.0351 273.3 65.9022C265.423 71.7693 252.88 92.1542 266.964 104.488Z" fill="#3B2645"/>
<path d="M273.121 101.249C275.552 100.085 276.034 96.0284 274.197 92.1879C272.361 88.3473 268.9 86.1773 266.469 87.3411C264.037 88.5048 263.555 92.5616 265.392 96.4021C267.229 100.243 270.689 102.413 273.121 101.249Z" fill="#FFEDE5"/>
<path d="M272.231 97.6788C272.103 97.6788 271.974 97.636 271.889 97.5075L269.149 93.7388C269.02 93.5675 269.063 93.2678 269.235 93.1393C269.406 93.0108 269.705 93.0536 269.834 93.2249L272.574 96.9936C272.702 97.1649 272.659 97.4647 272.488 97.5931C272.402 97.636 272.317 97.6788 272.231 97.6788Z" fill="#472938"/>
<path d="M290.511 106.287C290.511 106.287 293.978 108.685 299.501 108.899C299.501 108.899 293.507 110.141 290.511 106.287Z" fill="#472938"/>
<path d="M299.544 104.317C298.602 104.317 297.703 104.188 296.976 103.803C296.762 103.674 296.676 103.417 296.804 103.246C296.933 103.032 297.19 102.946 297.361 103.075C299.159 103.974 302.627 103.203 303.055 102.689C303.098 102.261 302.455 100.334 302.027 99.092C301.642 97.9786 301.3 96.9507 301.171 96.2227C300.7 94.2099 302.755 91.726 302.841 91.5976C303.012 91.4263 303.269 91.3834 303.44 91.5547C303.611 91.726 303.654 91.983 303.483 92.1543C302.969 92.7967 301.685 94.7238 301.984 96.0514C302.156 96.7366 302.498 97.8073 302.841 98.8351C303.697 101.362 304.039 102.518 303.825 103.032C303.697 103.332 303.397 103.546 302.798 103.803C302.113 104.06 300.829 104.317 299.544 104.317Z" fill="#472938"/>
<path d="M308.963 92.0257C308.963 92.0257 310.205 90.9551 309.049 90.2699C307.893 89.5847 305.881 89.756 305.624 90.3984C305.367 91.0408 305.282 91.4262 306.138 91.469C307.037 91.5118 308.835 91.0408 308.963 92.0257Z" fill="#472938"/>
<path d="M286.188 88.4714C286.188 88.4714 289.57 86.7156 292.01 87.4436C294.45 88.1717 295.006 89.1995 296.205 88.8997C297.404 88.5571 296.333 86.6299 293.679 85.9019C291.025 85.1739 287.343 86.2873 286.188 88.4714Z" fill="#472938"/>
<path d="M290.727 94.5097C290.213 94.4241 289.871 93.953 289.914 93.4391L290.042 92.711C290.128 92.1971 290.599 91.8545 291.112 91.8973C291.626 91.983 291.969 92.4541 291.926 92.968L291.797 93.696C291.712 94.2099 291.241 94.5954 290.727 94.5097Z" fill="#472938"/>
<path d="M304.724 96.2226C304.296 96.1798 304.039 95.7943 304.082 95.3661L304.167 94.7665C304.21 94.3383 304.595 94.0813 305.024 94.1241C305.452 94.167 305.709 94.5524 305.666 94.9807L305.58 95.5802C305.537 96.0085 305.152 96.2654 304.724 96.2226Z" fill="#472938"/>
<path d="M327.159 445.08C329 446.621 331.354 448.634 333.238 445.422C333.024 443.367 333.281 436.943 333.281 436.943L317.099 437.842L317.998 444.566C317.998 444.523 325.318 443.538 327.159 445.08Z" fill="#FFEDE5"/>
<path d="M331.997 463.109C334.608 462.167 340.259 456.471 341.415 455.272C341.03 453.388 340.131 451.504 338.932 451.289C337.177 451.032 333.452 447.435 333.238 445.379C331.312 448.634 329 446.621 327.159 445.037C325.318 443.495 317.998 444.48 317.998 444.48C317.998 444.48 315.601 456.771 315.344 463.152C318.983 463.409 329.599 464.009 331.997 463.109Z" fill="#3B2645"/>
<path d="M315.815 466.835C317.655 468.42 330.841 467.949 332.211 467.563C333.581 467.178 340.259 460.583 341.244 458.998C341.672 458.313 341.714 456.771 341.372 455.272C340.216 456.471 334.565 462.167 331.954 463.109C329.556 463.966 318.897 463.409 315.301 463.195C315.301 465.122 315.386 466.492 315.815 466.835Z" fill="#E5E5E5"/>
<path d="M225.527 444.908C229.68 445.465 230.707 447.906 231.992 447.778C233.276 447.649 236.23 445.08 236.23 445.08C236.23 443.195 238.113 436.943 238.113 436.943L221.032 437.5L219.191 445.979C219.234 445.979 221.418 444.352 225.527 444.908Z" fill="#FFEDE5"/>
<path d="M237.171 457.756C238.841 457.114 240.339 455.7 241.281 454.758C241.238 453.216 240.81 451.461 239.611 450.775C237.556 449.619 236.272 445.08 236.272 445.08C236.272 445.08 233.318 447.606 232.034 447.778C230.749 447.949 229.679 445.508 225.569 444.908C221.417 444.352 219.276 445.979 219.276 445.979C217.735 450.433 217.093 457.328 216.922 461.31C219.02 461.739 222.444 462.253 227.196 462.253C235.801 462.21 234.517 458.741 237.171 457.756Z" fill="#3B2645"/>
<path d="M216.881 464.266C217.095 464.951 217.737 466.835 227.326 466.835C236.915 466.835 236.616 462.081 237.258 460.54C237.943 458.955 240.512 457.97 240.94 457.199C241.111 456.857 241.282 455.872 241.239 454.758C240.34 455.7 238.799 457.114 237.13 457.756C234.475 458.741 235.802 462.253 227.112 462.253C222.36 462.253 218.935 461.739 216.838 461.311C216.795 462.938 216.795 464.094 216.881 464.266Z" fill="#E5E5E5"/>
<path d="M316.111 215.021C316.111 215.021 327.798 241.744 330.923 262.857C334.049 283.97 327.37 341.185 328.355 346.067C329.34 350.949 334.819 365.938 335.633 386.066C336.403 406.194 333.278 436.9 333.278 436.9C333.278 436.9 323.774 441.139 317.096 437.799C317.096 437.799 311.916 405.08 309.048 391.333C306.179 377.586 306.179 361.484 303.011 353.947C299.844 346.409 291.624 293.434 289.269 284.912C289.269 284.912 280.579 327.48 272.531 346.581C264.483 365.681 262.256 367.694 259.816 378.7C257.376 389.706 240.166 429.534 238.154 436.942C238.154 436.942 228.865 441.653 221.073 437.499C221.073 437.499 225.654 388.849 233.873 369.578C242.093 350.306 243.078 349.792 244.918 335.746C246.759 321.699 239.182 260.33 259.731 221.102C259.688 221.059 288.499 214.806 316.111 215.021Z" fill="#AB8DA8"/>
<path d="M289.27 216.477C291.153 224.699 316.026 262.129 316.026 262.129L301.513 215.363L289.27 216.477Z" fill="#543753"/>
<path d="M278.395 274.248C278.395 274.248 282.162 283.156 300.913 281.914C300.913 281.914 290.638 284.184 291.58 296.304L289.268 284.955L286.657 296.946C286.657 296.946 287.342 285.04 273.942 280.929L282.718 281.186C282.761 281.143 278.437 278.06 278.395 274.248Z" fill="#543753"/>
<path d="M250.656 132.068C250.656 132.068 244.32 137.335 225.698 165.943C207.076 194.55 211.87 196.092 214.91 200.289C217.906 204.486 240.467 228.125 242.137 230.267C243.806 232.451 249.971 238.96 253.267 236.348C256.564 233.735 255.494 226.241 259.175 223.414C262.857 220.545 265.939 217.676 266.239 216.134C266.539 214.592 265.768 213.308 265.425 213.308C265.083 213.308 261.359 216.52 259.09 217.633C256.821 218.746 251.512 222.601 251.427 222.601C251.341 222.601 231.178 192.195 231.178 192.195L253.61 165.429L250.656 132.068Z" fill="#FFEDE5"/>
<path d="M251.083 141.746C251.083 141.746 242.778 151.896 245.004 176.049L253.695 165.729L251.083 141.746Z" fill="#DF845C"/>
<path d="M228.223 215.149L236.656 200.374L231.476 192.494L226.981 213.821L228.223 215.149Z" fill="#DF845C"/>
<path d="M281.135 127.014C286.615 128.342 301.042 136.393 310.118 153.266C319.193 170.139 315.983 173.137 312.515 177.976L311.188 199.646L317.01 217.761L259.73 221.102C259.73 221.102 264.183 202.43 261.871 196.52C259.559 190.61 234.473 157.206 248.386 135.065C255.449 123.716 281.135 127.014 281.135 127.014Z" fill="#FFEDE5"/>
<path d="M311.19 199.603L312.517 177.934C315.985 173.137 319.238 170.096 310.12 153.223C307.893 149.112 305.368 145.515 302.713 142.388C302.243 148.983 300.873 156.863 297.662 165.043C290.427 183.587 261.402 182.473 253.653 181.831C257.378 188.94 260.974 194.379 261.787 196.434C262.215 197.505 262.429 199.004 262.472 200.717C284.434 202.815 311.19 199.603 311.19 199.603Z" fill="#AB8DA8"/>
<path d="M281.608 127.143C281.436 127.1 281.265 127.057 281.137 127.014C281.137 127.014 280.751 126.971 280.109 126.886C270.734 129.455 263.413 135.28 258.533 144.102C256.906 138.363 256.007 133.01 256.564 128.941C256.478 128.984 256.393 129.027 256.307 129.027C256.093 129.113 255.879 129.198 255.665 129.284C254.894 129.584 254.166 129.926 253.481 130.312C248.687 135.494 247.017 145.172 248.515 159.219C249.2 165.514 250.399 171.553 251.469 176.178C251.469 176.606 251.469 177.034 251.469 177.463C251.683 177.891 251.855 178.276 252.069 178.705C252.154 178.919 252.283 179.133 252.368 179.347C252.882 180.375 253.396 181.36 253.91 182.345C253.524 180.932 252.925 178.747 252.326 176.092C252.326 171.082 252.754 163.93 254.637 156.607C255.579 152.838 256.821 149.455 258.319 146.371C263.371 162.774 273.731 181.188 274.373 182.302L275.614 184.486L275.186 182.002C275.143 181.745 270.648 156.435 273.773 141.532C275.743 132.153 278.739 128.813 280.623 127.614C281.137 127.485 281.608 127.357 282.121 127.271C281.95 127.228 281.779 127.186 281.608 127.143ZM253.781 156.435C252.283 162.217 251.726 167.913 251.555 172.538C248.687 158.876 246.033 137.121 255.665 129.541C255.237 133.866 256.264 139.391 257.976 145.258C256.221 148.598 254.851 152.324 253.781 156.435ZM272.874 141.404C270.306 153.695 272.832 172.923 273.902 179.732C270.905 174.122 262.942 158.791 258.875 145.258C263.328 136.736 269.878 131.083 278.482 128.256C276.599 130.226 274.415 134.038 272.874 141.404Z" fill="#AB8DA8"/>
<path d="M283.492 198.276H262.215C261.958 198.276 261.787 198.104 261.787 197.848C261.787 197.591 261.958 197.419 262.215 197.419H283.492C283.749 197.419 283.92 197.591 283.92 197.848C283.92 198.104 283.706 198.276 283.492 198.276Z" fill="#472938"/>
<path d="M290.04 219.303L302.283 218.575L295.99 200.888C292.994 201.059 289.74 201.231 286.272 201.316C287.428 208.211 288.67 214.592 290.04 219.303Z" fill="#DF845C"/>
<path d="M281.265 159.433C281.265 159.433 281.992 167.741 283.191 178.49C284.604 177.934 286.017 177.291 287.344 176.52L281.265 159.433Z" fill="#DF845C"/>
<path d="M283.232 178.491C284.046 185.6 285.073 193.737 286.315 201.359C289.74 201.274 293.036 201.103 296.033 200.931L287.385 176.563C286.015 177.292 284.645 177.934 283.232 178.491Z" fill="#543753"/>
<path d="M262.556 220.888L263.754 220.802C263.754 220.802 265.681 219.132 266.066 216.948C265.552 217.976 264.225 219.389 262.556 220.888Z" fill="#DF845C"/>
<path d="M282.079 127.271C282.079 127.271 300.102 130.912 302.671 139.605C305.282 148.299 307.209 199.604 307.209 199.604C307.209 199.604 325.232 250.78 327.158 258.574C329.085 266.369 333.109 278.917 333.366 281.443C333.623 283.97 331.14 289.794 330.283 290.736C329.427 291.679 324.29 293.606 323.134 293.863C321.978 294.12 315 289.537 315.343 288.595C315.685 287.653 318.468 285.983 318.468 285.983L318.982 282.514C318.982 282.514 313.973 272.75 314.315 267.782C314.658 262.857 313.887 259.645 312.218 256.647C310.548 253.649 290.47 208.768 288.415 200.931C286.36 193.094 280.41 158.106 280.538 151.511C280.667 144.915 282.079 127.271 282.079 127.271Z" fill="#FFEDE5"/>
<path d="M169.574 65.7739L173.17 85.6449C173.64 88.2573 175.438 90.4414 177.921 91.4264L185.884 94.5526C185.884 94.5526 177.493 107.1 160.669 110.655C143.845 114.167 134.641 98.9208 134.641 98.9208L141.747 93.6105C143.331 92.4113 144.187 90.527 144.059 88.557L142.775 70.0992L169.574 65.7739Z" fill="#FFEDE5"/>
<path d="M143.76 83.9319C143.76 83.9319 163.924 95.8374 169.575 65.7739L142.818 70.0564L143.76 83.9319Z" fill="#DF845C"/>
<path d="M175.367 59.4643C176.127 56.2415 175.251 53.2766 173.41 52.8422C171.569 52.4078 169.46 54.6682 168.7 57.8911C167.94 61.1139 168.817 64.0787 170.658 64.5132C172.499 64.9476 174.607 62.6872 175.367 59.4643Z" fill="#FFEDE5"/>
<path d="M140.039 68.2176C141.677 67.2716 141.664 64.18 140.009 61.3125C138.353 58.4449 135.684 56.8872 134.046 57.8333C132.408 58.7794 132.422 61.8709 134.077 64.7385C135.732 67.606 138.401 69.1637 140.039 68.2176Z" fill="#DF845C"/>
<path d="M170.944 60.4636C170.858 60.4636 170.815 60.4636 170.73 60.4208C170.516 60.2923 170.43 60.0354 170.558 59.8641L172.057 56.9519C172.185 56.7378 172.442 56.6522 172.613 56.7806C172.827 56.9091 172.913 57.1661 172.785 57.3374L171.286 60.2495C171.243 60.378 171.115 60.4636 170.944 60.4636Z" fill="#472938"/>
<path d="M138.708 64.4892C138.623 64.4892 138.494 64.4463 138.409 64.3607L135.498 61.6627C135.326 61.4914 135.326 61.2344 135.455 61.0631C135.626 60.8918 135.883 60.8918 136.054 61.0203L138.965 63.7183C139.136 63.8896 139.136 64.1466 139.008 64.3179C138.922 64.4463 138.794 64.4892 138.708 64.4892Z" fill="#472938"/>
<path d="M132.371 45.9028C132.371 45.9028 139.392 72.0264 142.046 75.795C144.658 79.5209 152.749 82.9897 154.119 83.2039C155.489 83.418 160.926 82.8613 162.167 81.7906C163.409 80.72 170.087 73.6538 171.114 69.0714C172.099 64.4891 172.356 40.2927 168.118 35.8817C163.837 31.4706 130.231 35.068 132.371 45.9028Z" fill="#FFEDE5"/>
<path d="M154.376 64.4891C153.306 64.4891 151.422 63.9323 151.166 63.8039C150.823 63.6326 150.78 63.6326 150.909 56.0953C150.909 55.5814 150.909 55.1959 150.909 55.0675C150.866 54.7249 149.838 52.969 148.939 51.513C148.811 51.2988 148.854 51.0419 149.068 50.9134C149.282 50.7849 149.539 50.8277 149.667 51.0419C150.438 52.2838 151.808 54.4251 151.808 55.0246C151.808 55.1531 151.808 55.5385 151.808 56.0525C151.765 57.5942 151.722 62.0052 151.765 63.033C152.279 63.2043 153.734 63.5897 154.462 63.5469C155.061 63.5041 156.003 62.7761 156.431 62.3478C156.602 62.1765 156.859 62.1765 157.03 62.3478C157.202 62.5191 157.202 62.7761 157.03 62.9474C156.902 63.0758 155.575 64.3606 154.505 64.4034C154.462 64.4891 154.419 64.4891 154.376 64.4891Z" fill="#472938"/>
<path d="M149.069 69.0284L160.97 67.4011C160.97 67.4011 160.071 72.8827 155.833 73.8249C151.595 74.767 149.069 69.0284 149.069 69.0284Z" fill="white"/>
<path d="M160.883 53.7828C160.155 53.8684 159.513 53.3545 159.427 52.6265L159.341 51.6415C159.256 50.9134 159.769 50.2711 160.497 50.1854C161.225 50.0998 161.867 50.6137 161.953 51.3417L162.038 52.3267C162.167 53.0547 161.61 53.6971 160.883 53.7828Z" fill="#472938"/>
<path d="M144.232 56.7804C143.504 56.9088 142.819 56.4378 142.69 55.7097L142.519 54.7247C142.391 53.9967 142.862 53.3115 143.589 53.183C144.317 53.0545 145.002 53.5256 145.131 54.2537L145.302 55.2386C145.43 55.9667 144.959 56.6519 144.232 56.7804Z" fill="#472938"/>
<path d="M156.432 47.7444C156.432 47.7444 162.597 45.5603 165.893 47.4875C165.893 47.4875 165.336 44.7895 161.954 44.918C158.572 45.0464 156.389 45.5175 156.047 46.3312C155.704 47.1449 156.432 47.7444 156.432 47.7444Z" fill="#472938"/>
<path d="M147.268 49.4147C147.268 49.4147 140.761 48.8151 138.064 51.5131C138.064 51.5131 137.936 48.7295 141.232 48.0443C144.528 47.3591 146.755 47.2734 147.268 47.9586C147.825 48.6867 147.268 49.4147 147.268 49.4147Z" fill="#472938"/>
<path d="M136.524 60.4206L135.283 49.6285C135.283 49.6285 145.514 50.6992 153.22 42.9049C160.926 35.1107 166.277 39.4789 166.277 39.4789L171.628 54.0824L172.913 52.7548C172.913 52.7548 173.212 39.1363 172.913 38.6652C172.613 38.1941 170.344 36.7809 170.344 36.7809C170.344 36.7809 169.616 23.5049 153.134 20.8926C136.653 18.2802 132.286 35.5389 127.491 36.2241L129.418 38.6652C129.418 38.6652 128.776 40.6352 128.818 43.0762C128.861 45.5173 134.084 57.851 134.084 57.851L136.524 60.4206Z" fill="#3B2645"/>
<path d="M113.662 106.03C113.662 106.03 103.945 108.813 104.373 129.07C104.373 129.07 94.7404 143.545 93.6702 160.846C93.6702 160.846 70.1247 139.219 69.3113 136.564C68.4551 133.866 68.926 124.402 68.3695 122.089C67.813 119.777 65.7581 117.335 66.015 114.081C66.2718 110.826 66.8284 106.244 66.5287 105.773C66.229 105.301 61.734 105.815 60.9634 109.541C60.1928 113.267 59.9788 117.507 59.9788 117.507C59.9788 117.507 52.7439 119.305 51.8449 120.633C50.9459 121.961 51.4596 125.472 51.4596 125.472C51.4596 125.472 51.6308 137.292 52.8295 138.62C54.0282 139.947 59.7647 142.859 60.9634 143.673C62.1621 144.487 75.69 175.621 81.555 182.687C87.4199 189.753 92.8568 191.723 97.9512 190.053C103.046 188.383 117.13 169.368 121.668 160.546C126.206 151.724 124.536 107.057 113.662 106.03Z" fill="#FFEDE5"/>
<path d="M123.81 135.451C118.63 134.166 115.248 134.937 115.248 134.937C115.248 134.937 122.14 159.862 111.48 176.05C115.676 170.482 119.614 164.487 121.626 160.59C123.553 156.778 124.366 146.243 123.81 135.451Z" fill="#DF845C"/>
<path d="M93.6289 160.847L97.653 163.801L93.8001 159.005L93.6289 160.847Z" fill="#DF845C"/>
<path d="M54.8425 120.419C54.8425 120.419 62.163 120.976 62.5483 121.404C62.9336 121.832 63.533 136.95 62.163 137.977C60.7503 139.048 53.7295 138.877 53.7295 138.877C53.7295 138.877 62.1202 139.648 63.0192 139.262C63.9182 138.877 65.545 133.566 65.8447 130.826C66.1444 128.085 64.432 120.847 63.7898 120.676C63.1477 120.505 54.8425 120.419 54.8425 120.419Z" fill="#DF845C"/>
<path d="M206.69 423.795C206.99 414.374 207.974 400.541 207.803 387.736C207.546 369.321 205.705 348.594 204.806 342.555C203.864 336.517 206.048 308.552 206.048 308.552L167.348 313.948C168.289 316.946 175.31 343.241 175.61 354.718C175.952 366.195 190.037 419.641 190.593 423.924C190.679 424.481 190.722 425.08 190.807 425.68C194.361 426.108 201.167 426.451 206.69 423.795Z" fill="#FFEDE5"/>
<path d="M194.703 437.457C194.703 437.457 194.275 432.874 199.412 431.761C204.549 430.648 206.903 433.217 206.903 433.217C206.604 431.204 206.604 427.907 206.732 423.795C201.21 426.451 194.403 426.108 190.893 425.68C191.235 429.02 191.321 433.003 190.978 436.258C191.535 437.714 194.703 437.457 194.703 437.457Z" fill="white"/>
<path d="M189.311 456.985C194.791 459.854 193.207 466.278 200.056 467.863C205.75 469.19 214.398 468.42 217.78 468.034C218.679 467.948 219.406 467.22 219.578 466.321C219.663 465.679 219.749 464.822 219.706 463.923C215.425 464.308 205.365 465.079 201.341 464.094C196.203 462.852 194.962 457.585 192.393 456.129C190.467 455.058 189.225 453.645 188.712 453.002C188.626 453.902 188.498 454.672 188.455 455.229C188.284 456 188.669 456.685 189.311 456.985Z" fill="#3B2645"/>
<path d="M217.779 458.184C216.751 456.728 215.253 453.602 213.712 450.047C212.813 453.259 202.539 451.76 201.211 451.418C199.884 451.075 194.747 437.457 194.747 437.457C194.747 437.457 191.579 437.671 190.98 436.215C190.894 436.943 190.809 437.671 190.68 438.313C190.166 441.054 189.225 448.549 188.711 453.002C189.225 453.645 190.466 455.015 192.393 456.129C195.004 457.585 196.203 462.852 201.34 464.094C205.364 465.079 215.424 464.308 219.705 463.923C219.577 462.21 219.149 460.154 217.779 458.184Z" fill="#AB8DA8"/>
<path d="M201.166 451.418C202.493 451.76 212.768 453.259 213.667 450.047C210.413 442.596 206.86 433.217 206.86 433.217C206.86 433.217 204.505 430.647 199.368 431.761C194.231 432.874 194.659 437.456 194.659 437.456C194.659 437.456 199.839 451.118 201.166 451.418Z" fill="#3B2645"/>
<path d="M192.708 343.899C196.773 343.266 199.942 341.939 199.786 340.934C199.629 339.93 196.207 339.627 192.143 340.259C188.078 340.892 184.909 342.219 185.065 343.224C185.221 344.229 188.643 344.531 192.708 343.899Z" fill="#E0855C"/>
<path d="M97.0117 424.523C97.0545 415.059 97.5682 401.312 98.1676 388.507C99.2378 365.767 104.204 345.767 104.204 343.326C104.204 333.647 105.317 303.627 105.916 304.355L141.748 313.048C140.721 316.003 130.917 340.842 130.189 352.319C129.462 363.797 113.793 420.969 113.065 425.208C112.98 425.765 112.894 426.322 112.809 426.964C109.255 427.221 102.449 427.35 97.0117 424.523Z" fill="#FFEDE5"/>
<path d="M108.527 438.57C108.527 438.57 109.126 433.988 104.032 432.703C98.9372 431.418 96.4971 433.902 96.4971 433.902C96.8824 431.889 97.0108 428.592 97.0108 424.48C102.448 427.307 109.254 427.178 112.808 426.879C112.38 430.176 112.123 434.159 112.38 437.457C111.652 438.913 108.527 438.57 108.527 438.57Z" fill="white"/>
<path d="M113.236 458.27C107.628 460.968 109.041 467.435 102.148 468.762C96.4117 469.876 87.8069 468.848 84.4249 468.334C83.5259 468.206 82.7981 467.477 82.7125 466.535C82.6269 465.893 82.5841 465.036 82.6697 464.137C86.9507 464.651 96.9682 465.764 101.035 464.951C106.215 463.88 107.628 458.655 110.239 457.285C112.209 456.257 113.493 454.93 114.049 454.287C114.135 455.187 114.178 455.957 114.221 456.557C114.306 457.285 113.878 457.97 113.236 458.27Z" fill="#3B2645"/>
<path d="M84.7676 458.527C85.8379 457.113 87.4646 454.03 89.1342 450.518C89.9476 453.773 100.222 452.617 101.592 452.317C102.962 452.017 108.527 438.57 108.527 438.57C108.527 438.57 111.652 438.912 112.337 437.456C112.38 438.184 112.466 438.912 112.551 439.555C112.979 442.339 113.664 449.833 114.05 454.287C113.493 454.929 112.209 456.257 110.24 457.285C107.585 458.655 106.215 463.837 101.035 464.95C97.0112 465.807 86.9509 464.693 82.6699 464.137C82.7984 462.467 83.3549 460.411 84.7676 458.527Z" fill="#AB8DA8"/>
<path d="M101.55 452.317C100.181 452.617 89.9062 453.773 89.0928 450.518C92.6032 443.152 96.4561 433.902 96.4561 433.902C96.4561 433.902 98.8962 431.418 103.991 432.703C109.085 433.988 108.486 438.57 108.486 438.57C108.486 438.57 102.92 452.017 101.55 452.317Z" fill="#3B2645"/>
<path d="M121.294 346.984C121.484 345.984 118.361 344.552 114.32 343.783C110.278 343.015 106.848 343.202 106.658 344.201C106.468 345.2 109.591 346.633 113.632 347.401C117.674 348.17 121.104 347.983 121.294 346.984Z" fill="#E0855C"/>
<path d="M201.338 226.926C201.338 226.926 208.53 272.493 206.047 308.552C206.047 308.552 192.134 318.958 159.641 312.749L154.632 284.098L146.413 312.92C146.413 312.92 112.721 314.933 103.688 301.871C103.688 301.871 108.526 247.825 118.758 225.984C128.989 204.143 197.999 209.025 201.338 226.926Z" fill="#3B2645"/>
<path d="M154.632 284.098C154.632 284.098 150.608 280.544 150.18 280.201C149.752 279.859 146.027 265.127 146.027 265.127L150.137 299.858L154.632 284.098Z" fill="#3B2645"/>
<path d="M173.041 309.323C165.806 309.323 160.583 308.766 160.455 308.766C160.326 308.766 160.241 308.637 160.284 308.509C160.284 308.381 160.412 308.295 160.54 308.338C160.84 308.381 189.566 311.421 206.304 302.985C206.39 302.942 206.518 302.985 206.604 303.07C206.647 303.156 206.604 303.284 206.518 303.37C196.715 308.295 182.973 309.323 173.041 309.323Z" fill="white"/>
<path d="M147.74 308.466C147.74 308.466 147.697 308.466 147.74 308.466C116.574 305.854 104.202 297.16 104.074 297.075C103.988 296.989 103.945 296.86 104.031 296.775C104.117 296.689 104.245 296.646 104.331 296.732C104.459 296.818 116.746 305.426 147.783 308.038C147.911 308.038 147.997 308.166 147.997 308.252C147.911 308.38 147.826 308.466 147.74 308.466Z" fill="white"/>
<path d="M180.448 92.4109C180.448 92.4109 173.856 105.644 158.744 106.629C143.632 107.614 137.767 96.6507 137.767 96.6507L113.665 106.072C113.665 106.072 118.032 121.575 115.249 134.98C115.249 134.98 121.628 157.763 121.628 160.632C121.628 163.501 126.979 175.664 127.321 178.533C127.664 181.402 118.759 226.027 118.759 226.027C118.759 226.027 161.312 238.532 171.202 238.103C181.091 237.675 201.34 226.926 201.34 226.926C201.34 226.926 199.328 189.539 201.34 180.332C203.352 171.124 210.886 146.5 210.886 146.5C210.886 146.5 204.508 114.252 206.306 101.404L180.448 92.4109Z" fill="#AB8DA8"/>
<path d="M206.005 145.986C205.791 145.986 205.62 145.857 205.577 145.643C201.81 130.226 201.082 100.034 201.082 99.7342C201.082 99.4772 201.253 99.3059 201.51 99.3059C201.767 99.3059 201.938 99.4772 201.938 99.7342C201.938 100.034 202.666 130.14 206.433 145.472C206.476 145.686 206.348 145.943 206.134 145.986C206.048 145.986 206.005 145.986 206.005 145.986Z" fill="#472938"/>
<path d="M116.661 140.461C116.576 140.461 116.447 140.419 116.362 140.376C116.191 140.204 116.148 139.947 116.319 139.776C123.853 131.254 116.918 105.002 116.833 104.745C116.79 104.531 116.918 104.274 117.132 104.231C117.346 104.188 117.603 104.317 117.646 104.531C117.946 105.644 124.753 131.468 116.918 140.333C116.875 140.419 116.747 140.461 116.661 140.461Z" fill="#472938"/>
<path d="M156.433 111.297C141.449 111.297 133.701 98.4493 133.615 98.278C133.487 98.0638 133.572 97.8069 133.786 97.6784C134 97.5499 134.257 97.6356 134.386 97.8497C134.471 97.9782 142.562 111.425 158.188 110.355C170.86 109.498 177.709 101.361 179.978 98.6634C180.749 97.7212 180.963 97.5071 181.305 97.5928C181.476 97.6356 181.605 97.7641 181.648 97.9354C181.733 98.1495 181.605 98.4065 181.348 98.4493C181.305 98.4493 181.305 98.4493 181.262 98.4493C181.134 98.5778 180.877 98.9204 180.62 99.2201C178.309 101.961 171.288 110.312 158.231 111.211C157.631 111.297 157.032 111.297 156.433 111.297Z" fill="#472938"/>
<path d="M206.305 101.405C206.305 101.405 221.888 100.548 225.184 125.13C225.184 125.13 241.195 155.536 243.036 165.257C244.877 174.979 241.58 188.683 237.556 195.706C233.532 202.73 220.133 225.427 217.692 228.896C215.252 232.365 215.637 233.264 209.259 233.735C209.259 233.735 204.55 234.592 203.608 235.02C202.666 235.448 196.972 238.489 195.817 238.061C194.661 237.675 193.548 236.134 193.762 235.834C194.018 235.491 199.969 232.279 199.969 232.279C199.969 232.279 190.38 233.907 189.481 233.864C188.582 233.821 187.255 231.808 187.255 231.808C187.255 231.808 184.129 230.395 183.744 229.282C183.359 228.168 186.784 225.941 186.784 225.941C186.784 225.941 184.729 225.427 184.001 224.357C183.273 223.286 195.988 216.477 197.529 216.562C199.07 216.648 209.516 217.976 209.516 217.976C209.516 217.976 223.386 173.351 223.515 170.568C223.643 167.784 212.512 156.178 210.8 146.5C210.886 146.5 203.736 112.839 206.305 101.405Z" fill="#FFEDE5"/>
<path d="M186.654 231.937C186.483 231.937 186.355 231.851 186.269 231.68C186.184 231.466 186.269 231.209 186.483 231.123L196.158 226.712C196.372 226.626 196.629 226.712 196.715 226.926C196.8 227.14 196.715 227.397 196.501 227.483L186.826 231.894C186.783 231.937 186.74 231.937 186.654 231.937Z" fill="#472938"/>
<path d="M186.871 226.413C186.7 226.413 186.572 226.327 186.486 226.198C186.358 225.984 186.443 225.727 186.657 225.599L196.118 220.545C196.332 220.417 196.589 220.503 196.718 220.717C196.846 220.931 196.76 221.188 196.546 221.316L187.085 226.37C187 226.37 186.914 226.413 186.871 226.413Z" fill="#472938"/>
</svg>
