<svg width="537" height="396" viewBox="0 0 537 396" fill="none" xmlns="http://www.w3.org/2000/svg">
<path fill-rule="evenodd" clip-rule="evenodd" d="M266.951 377.666C240.658 372.965 217.938 356.932 191.373 354.167C149.546 349.812 88.345 393.128 66.828 356.833C43.389 317.295 127.773 275.619 118.137 230.63C108.691 186.524 26.1842 184.711 20.3834 139.973C15.5823 102.945 63.5275 77.7755 95.9503 59.5151C125.007 43.1504 159.889 43.3321 193.193 42.6473C218.487 42.1272 242.177 61.1483 266.951 55.9992C300.567 49.0125 322.707 8.17188 357.033 8.59513C389.518 8.99569 439.273 25.4954 439.682 58.1291C440.285 106.216 341.788 130.548 359.123 175.375C380.435 230.488 485.691 202.278 515.207 253.431C534.18 286.313 490.318 327.929 461.037 351.996C432.556 375.406 393.181 378.895 356.696 383.72C326.593 387.701 296.845 383.009 266.951 377.666Z" fill="#4E46B4" fill-opacity="0.12"/>
<mask id="mask0_165_2026" style="mask-type:alpha" maskUnits="userSpaceOnUse" x="0" y="0" width="537" height="396">
<rect width="536.999" height="395.232" rx="42.96" fill="#C4C4C4"/>
</mask>
<g mask="url(#mask0_165_2026)">
<path d="M322.528 24.8423C322.528 24.8423 348.979 31.2197 359.451 43.5273C369.923 55.835 366.323 87.5573 363.593 105.819C360.863 124.08 353.544 137.282 362.204 143.659C370.865 150.037 373.971 144.13 373.971 144.13C373.971 144.13 362.204 164.18 349.803 166.933C337.401 169.687 320.151 154.155 317.422 140.483C314.692 126.81 312.856 106.266 315.068 92.1226C317.28 77.9794 321.61 73.1787 323.799 63.6008C325.987 54.023 324.246 38.0677 324.246 38.0677L322.528 24.8423Z" fill="#3B2645"/>
<path d="M284.218 370.798C337.115 370.798 379.997 334.86 379.997 290.528C379.997 246.196 337.115 210.257 284.218 210.257C231.321 210.257 188.439 246.196 188.439 290.528C188.439 334.86 231.321 370.798 284.218 370.798Z" fill="#AB8DA8"/>
<path d="M202.984 101.771L200.889 100.383L191.123 85.7455L198.936 69.9785L216.491 68.8254L218.586 70.2374L202.984 101.771Z" fill="#393762"/>
<path d="M220.538 100.641L202.983 101.771L193.217 87.1336L201.006 71.3666L218.585 70.2371L228.328 84.8745L220.538 100.641Z" fill="#636183"/>
<path d="M262.804 95.1114C258.415 99.9535 254.666 105.34 251.649 111.137C245.719 121.962 230.729 137.023 227.952 140.083C226.644 141.728 224.967 143.042 223.057 143.918C220.413 136.177 218.321 128.258 216.797 120.221C215.409 110.808 213.314 92.311 213.314 92.311L218.892 81.1564C218.892 81.1564 214.35 72.0728 212.608 71.4138C210.867 70.7549 207.384 71.7433 202.16 76.2851C196.936 80.827 194.818 85.3453 197.265 90.899C199.712 96.4528 204.937 102.054 204.325 111.114C203.713 120.174 203.995 151.92 207.125 162.368C210.255 172.817 209.926 172.84 214.185 172.84C218.445 172.84 230.658 167.592 243.484 161.074C250.996 157.322 257.372 151.636 261.957 144.601L262.804 95.1114Z" fill="#FFEDE5"/>
<path d="M289.301 89.5491C283.449 88.5543 277.463 88.6661 271.652 89.8785C262.992 91.973 258.497 97.5032 256.756 107.552C255.014 117.6 248.801 130.073 252.967 139.486C257.132 148.899 260.921 156.123 261.274 163.725C261.443 170.98 261.105 178.237 260.262 185.445C259.574 186.886 258.787 188.278 257.909 189.611C257.909 189.611 257.203 195.141 239.882 190.293C222.562 185.445 200.418 186.834 177.568 192.035C154.717 197.235 142.598 201.448 141.562 209.002C140.527 216.556 140.527 263.692 142.598 277.553C143.762 286.885 143.532 296.339 141.915 305.604C136.176 309.598 130.022 312.959 123.56 315.629C113.864 319.441 108.334 321.512 110.052 325.042C111.77 328.572 118.359 329.207 126.666 329.207C134.973 329.207 146.41 328.525 146.41 328.525C146.41 328.525 136.032 335.09 129.09 339.585C122.148 344.08 115.606 345.139 118.712 349.987C121.818 354.835 151.658 353.446 158.883 353.446C166.107 353.446 174.461 350.669 175.144 347.563C175.826 344.457 173.073 333.702 173.073 329.56C173.073 325.419 172.037 307.039 176.179 298.732C180.321 290.425 186.581 266.186 186.228 256.844C185.875 247.501 185.192 241.618 185.192 241.618C185.192 241.618 224.963 247.078 240.494 252.608C256.026 258.138 290.69 262.656 306.975 254.702C323.259 246.748 329.825 237.029 327.401 223.192C324.977 209.355 318.388 200.342 320.129 184.057C321.871 167.772 321.847 151.864 326.013 143.91C330.178 135.956 339.52 121.742 338.814 112.399C338.108 103.057 320.812 93.5732 312.152 90.2315C303.492 86.8899 289.301 89.5491 289.301 89.5491Z" fill="#FFEDE5"/>
<path d="M141.469 209.834C140.433 217.435 140.433 264.524 142.504 278.385C143.669 287.718 143.439 297.171 141.822 306.436C136.082 310.43 129.928 313.791 123.466 316.461C113.77 320.274 108.24 322.344 109.958 325.874C111.676 329.404 118.265 330.04 126.572 330.04C133.632 330.04 142.881 329.545 145.54 329.381C147.211 328.84 150.482 327.686 150.482 327.027C150.482 326.369 153.235 301.141 153.588 276.808C153.941 252.476 156.718 224.377 156.718 224.377L153.612 211.905C150.761 209.228 147.691 206.796 144.434 204.633C142.85 205.952 141.797 207.8 141.469 209.834V209.834Z" fill="#FFEDE5"/>
<path d="M149.776 317.85C149.776 317.85 148.74 315.496 146.999 310.931C146.692 309.746 146.033 308.682 145.109 307.879C144.184 307.077 143.038 306.573 141.822 306.436C136.082 310.43 129.928 313.791 123.466 316.461C113.77 320.274 108.24 322.344 109.958 325.874C111.676 329.404 118.265 330.04 126.572 330.04C133.632 330.04 142.881 329.546 145.54 329.381C147.211 328.84 150.482 327.686 150.482 327.027C150.482 326.651 150.811 323.262 151.282 318.014L149.776 317.85Z" fill="#3B2645"/>
<path d="M283.418 201.856C274.5 197.162 266.736 190.547 260.685 182.488C260.497 184.536 260.332 185.971 260.238 186.277C259.55 187.718 258.764 189.109 257.885 190.442C257.885 190.442 257.179 195.973 239.859 191.125C222.539 186.277 200.394 187.666 177.544 192.866C154.694 198.067 142.574 202.279 141.539 209.833C141.539 210.186 141.539 210.634 141.397 211.151C142.731 213.095 144.168 214.964 145.704 216.752C148.719 220.131 152.494 222.744 156.717 224.377C157.776 229.224 164.342 244.45 174.037 244.45C183.733 244.45 185.121 242.379 185.121 242.379C185.121 242.379 224.963 247.91 240.494 253.44C256.026 258.97 290.69 263.488 306.974 255.534C323.259 247.58 329.825 237.861 327.401 224.024C326.324 218.707 324.885 213.471 323.094 208.351C312.552 208.916 295.561 208.563 283.418 201.856Z" fill="#3B2645"/>
<path d="M260.261 186.278C259.573 187.718 258.786 189.11 257.908 190.443C257.908 190.443 257.202 195.973 239.882 191.126C222.562 186.278 200.417 187.666 177.567 192.867C154.716 198.068 142.597 202.28 141.562 209.834C141.35 211.364 141.185 214.541 141.067 218.612C145.62 222 151.054 224.002 156.717 224.377C159.194 220.1 162.769 216.562 167.071 214.129C171.374 211.697 176.249 210.457 181.191 210.54C198.699 210.54 272.71 211.905 272.71 211.905L282.594 189.384C282.594 189.384 270.827 181.077 261.155 175.665C260.849 180.983 260.426 185.69 260.261 186.278Z" fill="#3B2645"/>
<path d="M320.271 188.09C321.165 184.254 338.815 163.968 340.58 156.909C342.345 149.849 348.816 128.363 342.933 116.008C337.05 103.654 329.684 100.712 329.684 100.712C324.278 96.7389 318.397 93.4581 312.176 90.946C303.539 87.4867 289.325 90.2636 289.325 90.2636C283.473 89.2688 277.487 89.3806 271.676 90.593C263.016 92.6875 258.521 98.2177 256.78 108.266C255.038 118.315 248.802 130.905 252.967 140.318C257.133 149.731 260.921 156.956 261.274 164.557C261.444 171.812 261.105 179.07 260.262 186.277C259.574 187.718 258.788 189.11 257.909 190.443V190.584C260.474 195.879 266.357 207.057 272.829 211.905C278.904 212.091 284.746 214.284 289.443 218.141C296.503 224.377 305.045 225.742 314.388 225.742C318.822 225.565 323.209 224.773 327.425 223.389C325.072 211.058 319.636 202.468 320.012 188.866C320.15 188.627 320.238 188.363 320.271 188.09V188.09Z" fill="#AB8DA8"/>
<path d="M316.506 69.4606C316.506 69.4606 325.189 56.1175 326.578 44.704C327.966 33.2906 325.895 22.6538 313.423 15.9705C300.951 9.28715 282.595 15.9705 277.065 22.6538C271.535 29.3371 272.217 42.0448 270.829 44.8217C269.44 47.5986 263.204 52.0933 263.91 53.8348C264.616 55.5762 269.111 57.953 269.111 57.953L271.464 68.684C272.146 71.8138 274.217 75.9556 276.641 75.9556C279.936 75.6121 283.205 75.0619 286.431 74.3083C286.431 74.3083 287.113 85.1334 285.066 89.487C282.313 95.3702 268.122 130.622 274.359 134.199C280.595 137.776 306.975 110.102 314.576 104.219C322.177 98.3353 312.223 91.0637 312.223 91.0637C312.223 91.0637 308.811 90.9225 310.199 82.2624C310.808 77.4093 313.029 72.9012 316.506 69.4606Z" fill="#FFEDE5"/>
<path d="M158.789 354.208C166.06 354.208 174.367 351.431 175.05 348.325C175.615 345.83 173.967 338.512 173.261 333.523C171.828 334.036 170.332 334.353 168.814 334.464C165.098 334.592 161.381 334.244 157.753 333.429C157.671 331.995 157.32 330.59 156.718 329.287C155.682 326.934 150.505 326.934 150.505 326.934L144.787 329.428H146.34C146.34 329.428 135.962 335.994 129.02 340.488C122.077 344.983 115.535 346.042 118.642 350.89C121.748 355.738 151.517 354.208 158.789 354.208Z" fill="#3B2645"/>
<path d="M331.049 47.1046C332.413 35.6912 325.895 22.654 313.422 15.9707C302.997 10.464 288.501 14.1822 280.735 19.3829C282.288 19.664 283.685 20.5005 284.665 21.7362C289.678 27.2193 287.019 37.2443 291.513 41.8097C296.008 46.3751 298.338 45.0102 298.338 45.0102C298.338 45.0102 303.374 36.7972 305.633 45.0102C307.892 53.2231 304.739 56.7766 302.456 57.7649C300.832 58.3763 299.154 58.8333 297.444 59.1298C297.444 59.1298 309.681 69.9314 316.505 69.5549C316.505 69.4608 329.66 58.5415 331.049 47.1046Z" fill="#3B2645"/>
<path d="M208.984 106.713L206.914 105.301L197.147 90.6634L204.937 74.8964L222.492 73.7668L224.587 75.1553L208.984 106.713Z" fill="#393762"/>
<path d="M226.563 105.56L208.984 106.713L199.241 92.0518L207.031 76.2849L224.586 75.1553L234.352 89.7927L226.563 105.56Z" fill="#636183"/>
<path d="M348.721 237.861C346.276 232.104 344.858 225.964 344.532 219.717C344.532 213.34 337.213 196.891 337.213 193.243C338.204 178.914 339.963 164.648 342.485 150.507C346.485 137.047 346.156 122.48 342.932 116.008C339.708 109.537 326.741 110.713 323.211 121.303C319.681 131.893 319.893 152.437 319.893 152.437C318.717 161.662 317.916 182.23 317.54 194.584C317.281 205.574 319.611 216.658 324.882 224.565C332.342 235.767 335.872 250.451 338.155 250.451C340.437 250.451 352.533 248.945 352.533 248.945C352.533 248.945 353.169 247.698 348.721 237.861Z" fill="#FFEDE5"/>
<path d="M355.242 260.947C355.242 260.947 357.596 248.192 357.078 245.439C356.56 242.686 348.865 244.545 345.665 244.545C342.464 244.545 340.205 244.074 340.652 245.91C341.099 247.745 347.5 248.263 347.5 248.263L349.853 249.157L355.242 260.947Z" fill="#FFEDE5"/>
<path d="M370.888 251.911H323.917V258.288H370.888V251.911Z" fill="#636183"/>
<path d="M388.209 237.791H367.688V271.537H388.209V237.791Z" fill="#636183"/>
<path d="M324.812 237.791H304.291V271.537H324.812V237.791Z" fill="#636183"/>
<path d="M332.577 246.897L335.142 259.417C335.31 260.253 335.774 261.001 336.448 261.524C337.122 262.046 337.962 262.309 338.813 262.264C342.014 262.076 346.979 261.794 349.897 261.488C354.463 261.041 355.828 262.406 356.298 259.135C356.51 257.487 356.863 254.428 357.169 251.839C357.23 251.273 357.169 250.699 356.989 250.158C356.809 249.617 356.515 249.121 356.126 248.704C355.738 248.287 355.265 247.958 354.738 247.739C354.211 247.521 353.644 247.419 353.074 247.439C349.521 247.439 345.05 247.721 343.967 247.721C342.155 247.815 336.225 242.803 332.577 246.897Z" fill="#FFEDE5"/>
</g>
</svg>
