<svg width="1060" height="244" viewBox="0 0 1060 244" fill="none" xmlns="http://www.w3.org/2000/svg">
<g clip-path="url(#clip0_326_1935)">
<path d="M0 16C0 7.16344 7.16344 0 16 0H1044C1052.84 0 1060 7.16344 1060 16V228C1060 236.837 1052.84 244 1044 244H16C7.16344 244 0 236.837 0 228V16Z" fill="#4E46B4" fill-opacity="0.12"/>
<path d="M528.969 -4.09821C528.969 -4.09821 750.76 -50.9149 813.85 31.2309C876.939 113.377 753.067 300.448 816.156 382.593C879.246 464.739 959.73 388.207 988.218 425.299L1239.64 231.477L861.704 -260.61L528.969 -4.09821Z" fill="url(#paint0_linear_326_1935)"/>
<path d="M919.076 82.3469L910.062 85.2339C910.062 85.2339 907.32 95.8372 908.176 97.7269C909.032 99.6166 913.853 101.051 916.141 99.9141C918.43 98.7767 926.185 91.3404 926.185 91.3404L919.076 82.3469Z" fill="#FFEDE5"/>
<path d="M927.339 72.1112C927.339 72.1112 921.574 78.6551 919.076 82.3471L925.504 92.4079L932.23 86.3539C932.23 86.3539 931.112 69.6091 927.339 72.1112Z" fill="#543753"/>
<path d="M918.046 82.6795V92.7579L920.946 85.2691L919.077 82.347L918.046 82.6795Z" fill="#E0855C"/>
<path d="M917.608 76.8354C918.394 77.0278 918.639 76.4854 919.285 77.5178C919.932 78.5501 921.294 82.592 920.927 83.2044C920.56 83.8168 916.49 87.7536 916.193 87.7536C915.896 87.7536 915.145 86.6513 915.302 86.2664C915.302 86.2664 914.342 86.8438 913.713 86.7388C913.713 86.7388 912.315 87.4737 911.756 87.3337C911.197 87.1937 907.931 82.3645 908.699 81.0872C909.468 79.8099 909.957 80.4748 910.411 79.9674C910.866 79.46 911.634 78.6201 912.56 78.7076C913.486 78.7951 913.905 77.3603 915.25 77.5703C916.595 77.7802 915.861 76.3979 917.608 76.8354Z" fill="#FFEDE5"/>
<path d="M915.285 86.4415C915.215 86.4415 915.163 86.4065 915.128 86.354C915.075 86.2665 915.11 86.1615 915.198 86.1265C915.215 86.1265 916.787 85.2867 917.206 84.6743L917.241 84.6393C917.259 84.6393 918.15 83.8344 918.447 83.222L916.927 79.7751C916.892 79.6876 916.927 79.5826 917.014 79.5476C917.102 79.5126 917.206 79.5476 917.241 79.6351L918.813 83.222L918.779 83.292C918.516 83.9569 917.608 84.7793 917.468 84.9017C916.979 85.5841 915.407 86.4065 915.337 86.4415C915.337 86.424 915.32 86.4415 915.285 86.4415Z" fill="#472938"/>
<path d="M913.696 86.9139C913.626 86.9139 913.573 86.8789 913.538 86.809L911.599 82.8546C911.564 82.7671 911.599 82.6621 911.687 82.6271C911.774 82.5921 911.879 82.6271 911.914 82.7146L913.853 86.669C913.888 86.7565 913.853 86.8614 913.765 86.8964C913.748 86.9139 913.73 86.9139 913.696 86.9139Z" fill="#472938"/>
<path d="M916.315 85.829C916.246 85.829 916.193 85.794 916.158 85.724L914.342 81.8047C914.307 81.7172 914.342 81.6122 914.429 81.5772C914.516 81.5422 914.621 81.5772 914.656 81.6647L916.473 85.5841C916.508 85.6715 916.473 85.7765 916.385 85.8115C916.368 85.829 916.333 85.829 916.315 85.829Z" fill="#472938"/>
<path d="M916.176 87.9289C915.896 87.9289 915.582 87.4914 915.46 87.3165C915.372 87.194 915.18 86.879 915.11 86.5641C914.778 86.7215 914.202 86.9665 913.73 86.9315C913.451 87.0715 912.263 87.6489 911.704 87.5089C911.39 87.4389 910.813 86.6691 910.499 86.2141C910.446 86.1266 910.464 86.0217 910.534 85.9692C910.604 85.9167 910.726 85.9342 910.778 86.0042C911.32 86.7915 911.687 87.124 911.774 87.159C912.141 87.2465 913.084 86.844 913.608 86.5816L913.66 86.5641H913.713C914.289 86.6516 915.18 86.1091 915.198 86.1091L915.652 85.8467L915.46 86.3366C915.442 86.3891 915.442 86.5641 915.617 86.8965C915.827 87.2815 916.071 87.5264 916.176 87.5789C916.613 87.334 919.46 84.6394 920.473 83.5546C919.53 83.782 918.621 83.3796 918.587 83.3621C918.499 83.3271 918.464 83.2221 918.499 83.1346C918.534 83.0471 918.639 83.0121 918.726 83.0471C918.744 83.0471 919.879 83.5546 920.84 83.0471C920.962 82.9771 921.05 83.0121 921.084 83.0646C921.137 83.0996 921.172 83.1871 921.137 83.2746C921.015 83.5895 916.595 87.9289 916.176 87.9289Z" fill="#472938"/>
<path d="M947.095 61.5953L955.847 67.107V78.5327C955.847 78.5327 946.746 97.4996 947.095 104.341L926.255 108.243C926.255 108.243 921.26 88.1561 927.338 72.0937L936.632 65.5497L947.095 61.5953Z" fill="#AB8DA8"/>
<path d="M924.333 92.1103C924.246 92.1103 924.158 92.0403 924.158 91.9353C924.089 87.0886 924.473 82.5743 925.329 78.48C925.346 78.3925 925.434 78.3225 925.538 78.34C925.626 78.3575 925.696 78.445 925.678 78.5499C924.84 82.6093 924.438 87.1061 924.525 91.9178C924.508 92.0228 924.438 92.1103 924.333 92.1103Z" fill="#472938"/>
<path d="M955.846 78.5501L949.016 77.5178L952.841 85.269L955.846 78.5501Z" fill="#543753"/>
<path d="M944.823 54.5792L947.093 61.5956C944.665 62.5404 942.482 64.0102 940.7 65.9174C937.713 69.1019 936.56 72.1114 934.761 72.1114C932.962 72.1114 936.648 65.5674 936.648 65.5674L936.176 59.4434L944.823 54.5792Z" fill="#FFEDE5"/>
<path d="M936.405 62.5577C936.405 62.5577 940.405 61.9628 942.449 56.2062L936.16 59.4432L936.405 62.5577Z" fill="#E0855C"/>
<path d="M933.434 40.2487C933.434 40.2487 929.573 59.1107 931.582 60.4055C933.591 61.7003 941.522 60.5805 944.474 55.3313C947.426 50.0822 943.723 40.2487 933.434 40.2487Z" fill="#FFEDE5"/>
<path d="M932.195 46.9502C932.195 46.9502 928.562 51.6569 928.928 52.1119C929.295 52.5668 931.287 53.2142 931.287 53.2142L932.195 46.9502Z" fill="#FFEDE5"/>
<path d="M943.095 52.4793C943.095 52.4793 941.279 51.5694 942.449 47.5976C942.449 47.5976 940.091 43.4157 938.554 42.7333C937.016 42.0509 933.104 41.841 933.104 41.841C933.104 41.841 932.317 36.3294 933.628 35.752C934.938 35.1745 947.061 35.507 949.349 39.7938C950.118 41.2461 949.628 42.1209 949.628 42.1209C949.628 42.1209 950.921 43.8357 950.694 45.3054C950.467 46.7752 946.903 52.2168 946.903 52.2168L943.095 52.4793Z" fill="#3B2645"/>
<path d="M946.72 53.9138C947.935 52.6975 948.278 51.0689 947.486 50.2763C946.695 49.4837 945.069 49.8271 943.855 51.0434C942.641 52.2597 942.298 53.8882 943.089 54.6809C943.88 55.4735 945.506 55.1301 946.72 53.9138Z" fill="#FFEDE5"/>
<path d="M933.12 56.2412C932.299 56.2412 931.565 56.0137 931.513 55.9962C931.425 55.9612 931.373 55.8737 931.408 55.7687C931.443 55.6812 931.53 55.6287 931.635 55.6637C931.652 55.6637 934.028 56.4336 934.849 55.1738C934.902 55.0863 935.006 55.0688 935.094 55.1213C935.181 55.1738 935.199 55.2788 935.146 55.3663C934.674 56.0487 933.871 56.2412 933.12 56.2412Z" fill="#472938"/>
<path d="M944.021 53.2842C943.969 53.2842 943.899 53.2492 943.882 53.1967C943.829 53.1092 943.847 53.0042 943.934 52.9517L945.349 52.0594C945.436 52.0069 945.541 52.0244 945.593 52.1119C945.646 52.1994 945.628 52.3043 945.541 52.3568L944.126 53.2492C944.091 53.2667 944.056 53.2842 944.021 53.2842Z" fill="#472938"/>
<path d="M934.605 46.9677C934.972 47.0552 935.199 47.4226 935.111 47.7726L935.007 48.245C934.919 48.6124 934.552 48.8399 934.203 48.7524C933.836 48.6649 933.609 48.2975 933.696 47.9475L933.801 47.4751C933.889 47.1077 934.238 46.8802 934.605 46.9677Z" fill="#3B2645"/>
<path d="M933.871 45.1307C933.871 45.1307 936.177 44.9732 936.771 46.8629C936.771 46.8629 936.701 44.8857 935.251 44.5882C933.801 44.2908 933.33 45.0432 933.871 45.1307Z" fill="#3B2645"/>
<path d="M950.204 63.5551C942.36 62.2253 947.566 78.7952 947.566 78.7952L959.304 82.3471L963.654 68.9617C956.824 65.9522 950.204 63.5551 950.204 63.5551Z" fill="#AB8DA8"/>
<path d="M961.138 102.714C961.138 102.714 956.998 104.166 956.597 104.813C956.195 105.461 956.579 107.753 956.579 107.753C956.142 108.453 955.793 109.188 955.549 109.975C955.199 111.147 956.073 110.797 957.103 111.987C958.134 113.177 958.972 112.88 959.566 113.422C960.16 113.964 961.365 113.789 961.837 114.017C962.309 114.244 963.2 115.014 963.741 114.979C964.283 114.944 965.558 113.09 966.606 110.762C967.654 108.435 967.462 106.546 967.933 103.746C968.405 100.947 979.428 82.9419 978.135 78.0602C977.489 75.6281 970.466 71.9886 963.636 68.9616L959.287 82.347L965.505 84.2367L961.138 102.714Z" fill="#FFEDE5"/>
<path d="M967.375 84.9017C967.358 84.9017 967.34 84.9017 967.323 84.9017L965.454 84.3943C965.366 84.3768 965.297 84.2719 965.331 84.1844C965.349 84.0969 965.454 84.0444 965.541 84.0619L967.41 84.5693C967.498 84.5868 967.567 84.6918 967.532 84.7793C967.532 84.8493 967.463 84.9017 967.375 84.9017Z" fill="#472938"/>
<path d="M981.577 147.594L988.373 144.182C988.373 144.182 988.215 142.852 989.578 141.347C990.94 139.843 989.927 136.361 988.652 135.801C987.377 135.241 986.748 135.626 985.648 133.824L975.813 138.093L981.577 147.594Z" fill="#FFEDE5"/>
<path d="M988.635 135.801C989.91 136.361 990.906 139.843 989.561 141.347C988.216 142.852 988.355 144.182 988.355 144.182C994.172 144.969 999.64 153.508 1000.67 154.47C1001.7 155.433 1005.88 154.75 1006 154.033C1006.12 153.315 997.055 129.362 996.216 128.837C995.378 128.312 985.63 133.824 985.63 133.824C986.731 135.626 987.36 135.241 988.635 135.801Z" fill="#AB8DA8"/>
<path d="M1006 154.033C1006.1 153.316 997.053 129.362 996.215 128.837C996.005 128.697 995.237 128.942 994.224 129.379C996.634 134.174 1002.78 150.691 1004.3 154.785C1005.21 154.61 1005.94 154.33 1006 154.033Z" fill="#E5E5E5"/>
<path d="M929.19 122.293C929.19 122.293 944.772 163.237 951.34 163.779C957.908 164.322 984.564 146.387 984.564 146.387L979.603 136.431L957.087 143.867L951.479 118.164L929.19 122.293Z" fill="#3B2645"/>
<g opacity="0.5">
<path opacity="0.5" d="M951.479 118.181L929.19 122.293C929.19 122.293 933.19 132.792 937.976 143.22L953.331 126.755L951.479 118.181Z" fill="#3B2645"/>
</g>
<path d="M888.245 181.346L885.24 188.328C885.24 188.328 886.218 189.255 886.149 191.267C886.079 193.279 889.083 195.309 890.428 194.907C891.773 194.504 892 193.804 894.009 194.487L898.796 184.863L888.245 181.346Z" fill="#FFEDE5"/>
<path d="M887.195 183.778C887.195 183.778 891.318 188.1 896.715 189.01L898.777 184.863L888.243 181.329L887.195 183.778Z" fill="#E0855C"/>
<path d="M947.095 104.358C947.095 104.358 956.214 114.944 951.462 123.343C946.711 131.742 918.395 147.174 916.474 151.916C914.552 156.658 913.469 162.134 909.539 168.713C905.608 175.292 899.337 186.893 899.337 186.893C899.337 186.893 889.852 186.525 886.76 182.414C886.76 182.414 902.062 143.622 905.713 138.601C909.364 133.579 926.588 112.302 926.588 112.302L926.238 108.26L947.095 104.358Z" fill="#3B2645"/>
<path d="M895.022 185.51C895.004 185.51 895.004 185.51 894.987 185.51C894.952 185.493 894.917 185.44 894.952 185.388C895.127 185.021 911.983 149.046 915.355 144.847C916.595 143.29 920.246 139.633 924.456 135.398C931.67 128.155 940.631 119.144 941.837 116.379C943.723 112.075 942.465 106.021 942.448 105.951C942.431 105.898 942.465 105.863 942.518 105.846C942.57 105.828 942.605 105.863 942.623 105.916C942.64 105.968 943.898 112.092 941.994 116.449C940.771 119.231 931.792 128.26 924.578 135.521C920.368 139.755 916.735 143.395 915.495 144.952C912.141 149.134 895.284 185.091 895.127 185.458C895.092 185.493 895.057 185.51 895.022 185.51Z" fill="white"/>
<path d="M892.628 184.968C892.611 184.968 892.611 184.968 892.593 184.968C892.558 184.951 892.523 184.898 892.558 184.846C892.733 184.478 910.219 147.419 912.245 144.305C913.276 142.712 919.424 136.203 925.364 129.922C931.233 123.71 937.312 117.271 938.482 115.557C940.823 112.127 940.334 106.563 940.334 106.511C940.334 106.458 940.369 106.423 940.421 106.423C940.474 106.423 940.509 106.458 940.509 106.511C940.509 106.563 941.015 112.197 938.622 115.679C937.434 117.411 931.355 123.85 925.486 130.079C919.547 136.361 913.415 142.87 912.385 144.445C910.376 147.559 892.873 184.601 892.698 184.968C892.698 184.951 892.663 184.968 892.628 184.968Z" fill="white"/>
<path d="M890.411 194.924C889.084 195.309 886.062 193.297 886.131 191.285C886.201 189.273 885.223 188.345 885.223 188.345C880.262 191.495 870.602 188.485 869.187 188.415C867.772 188.345 865.012 191.565 865.397 192.177C865.781 192.789 888.088 205.283 889.084 205.16C890.079 205.038 893.975 194.522 893.975 194.522C891.983 193.822 891.756 194.539 890.411 194.924Z" fill="#AB8DA8"/>
<path d="M865.413 192.177C865.78 192.789 888.104 205.282 889.1 205.16C889.345 205.125 889.781 204.46 890.27 203.463C885.344 201.346 870.007 192.667 866.234 190.515C865.64 191.215 865.256 191.915 865.413 192.177Z" fill="#E5E5E5"/>
<g opacity="0.5">
<path opacity="0.5" d="M926.587 112.302C926.587 112.302 936.946 111.007 936.841 111.042C936.737 111.077 926.448 110.587 926.448 110.587L926.587 112.302Z" fill="#3B2645"/>
</g>
</g>
<defs>
<linearGradient id="paint0_linear_326_1935" x1="900.746" y1="492.733" x2="472.075" y2="-214.361" gradientUnits="userSpaceOnUse">
<stop stop-color="#92A3FD"/>
<stop offset="1" stop-color="#9DCEFF"/>
</linearGradient>
<clipPath id="clip0_326_1935">
<path d="M0 16C0 7.16344 7.16344 0 16 0H1044C1052.84 0 1060 7.16344 1060 16V228C1060 236.837 1052.84 244 1044 244H16C7.16344 244 0 236.837 0 228V16Z" fill="white"/>
</clipPath>
</defs>
</svg>
