<svg width="409" height="452" viewBox="0 0 409 452" fill="none" xmlns="http://www.w3.org/2000/svg">
<path d="M323.447 289.341C370.664 199.821 355.679 98.918 289.978 63.9669C224.277 29.0157 132.738 73.2522 85.5213 162.772C38.3043 252.291 53.2888 353.195 118.99 388.146C184.691 423.097 276.23 378.861 323.447 289.341Z" fill="#4E46B4" fill-opacity="0.12"/>
<path d="M170.944 427.729C206.836 427.729 235.933 426.999 235.933 426.098C235.933 425.197 206.836 424.467 170.944 424.467C135.051 424.467 105.954 425.197 105.954 426.098C105.954 426.999 135.051 427.729 170.944 427.729Z" fill="#3B2645"/>
<path d="M171.11 426.098C214.141 426.098 249.025 391.274 249.025 348.317C249.025 305.359 214.141 270.535 171.11 270.535C128.079 270.535 93.1953 305.359 93.1953 348.317C93.1953 391.274 128.079 426.098 171.11 426.098Z" fill="#FA9E97"/>
<path d="M157.489 402.667C151.358 402.667 145.227 401.968 139.162 400.504C117.687 395.412 99.5588 381.832 88.1252 362.229C76.6915 342.658 73.3442 319.427 78.6468 296.828C83.9494 274.229 97.3052 254.992 116.262 242.61C135.219 230.229 157.489 226.235 178.965 231.327C200.44 236.42 218.568 249.999 230.002 269.603C241.436 289.173 244.783 312.404 239.48 335.003C234.178 357.602 220.789 376.84 201.865 389.221C188.277 398.074 172.999 402.667 157.489 402.667ZM160.737 229.863C123.188 229.863 88.6554 257.055 79.2434 296.994C73.9739 319.427 77.3212 342.459 88.6554 361.896C99.9897 381.333 117.985 394.812 139.295 399.871C145.327 401.303 151.425 402.002 157.489 402.002C172.867 402.002 188.012 397.475 201.501 388.655C220.292 376.374 233.548 357.269 238.851 334.837C244.12 312.404 240.773 289.373 229.439 269.935C218.104 250.498 200.109 237.019 178.799 231.96C172.767 230.529 166.703 229.863 160.737 229.863Z" fill="white"/>
<path d="M131.375 362.528C124.117 362.528 117.489 360.698 111.822 356.97C100.057 349.249 93.8927 334.438 94.5224 315.234C95.1521 296.063 102.41 274.828 115.004 255.424C127.597 236.021 144.002 220.744 161.235 212.423C178.469 204.102 194.476 203.77 206.241 211.458C218.006 219.18 224.17 233.99 223.541 253.195C222.911 272.365 215.653 293.6 203.059 313.004C190.466 332.408 174.061 347.684 156.828 356.005C147.879 360.365 139.263 362.528 131.375 362.528ZM115.236 255.558L115.434 255.691C102.874 275.028 95.6492 296.196 95.0195 315.234C94.423 334.271 100.488 348.916 112.087 356.538C136.114 372.28 176.745 352.61 202.629 312.737C228.512 272.865 230.003 227.6 205.976 211.891C181.948 196.148 141.318 215.818 115.434 255.691L115.236 255.558Z" fill="white"/>
<path d="M124.447 332.674C119.675 332.674 115.764 331.243 113.477 328.247C110.428 324.32 110.528 318.329 113.775 311.406C116.99 304.517 122.856 297.527 130.379 291.67L130.512 291.836L130.379 291.67C145.922 279.555 163.653 276.293 169.883 284.381C176.114 292.468 168.525 308.877 152.981 320.992C143.172 328.547 132.533 332.674 124.447 332.674ZM130.644 292.002C123.188 297.794 117.355 304.75 114.173 311.573C111.025 318.329 110.892 324.154 113.842 327.948C119.907 335.836 137.339 332.508 152.716 320.559C168.094 308.611 175.617 292.468 169.519 284.614C163.421 276.759 145.989 280.054 130.644 292.002Z" fill="white"/>
<g opacity="0.3">
<path opacity="0.3" d="M237.127 307.013C239.944 314.967 241.369 323.355 241.336 331.808C241.336 372.913 208.162 406.195 167.266 406.195C129.087 406.195 97.6694 377.206 93.6261 339.963C93.3279 342.725 93.1953 345.521 93.1953 348.317C93.1953 391.251 128.093 426.098 171.11 426.098C214.127 426.098 249.025 391.285 249.025 348.35C249.058 333.705 244.915 319.361 237.127 307.013Z" fill="#543753"/>
</g>
<path d="M220.722 133.742C220.722 133.742 214.989 137.437 209.554 146.39C204.119 155.343 198.319 163.763 198.319 163.763C198.319 163.763 196.198 145.624 197.192 143.228C198.186 140.831 201.766 135.539 202.594 133.742C203.423 131.945 207.366 129.382 207.4 128.35C207.433 127.319 207.002 124.09 206.836 123.99C206.67 123.89 204.682 124.623 204.384 125.688C204.152 126.453 203.986 127.119 203.986 127.119C203.986 127.119 201.302 128.617 200.838 128.65C200.374 128.683 198.186 127.518 198.153 127.319C198.12 127.119 199.976 122.792 200.539 122.559C201.103 122.326 204.218 124.756 204.815 124.756C205.411 124.756 206.67 123.957 206.737 123.491C206.803 123.025 202.859 118.965 202.528 118.931C202.196 118.898 198.816 118.299 198.352 118.632C197.888 118.965 195.369 121.161 195.369 121.161C195.369 121.161 195.369 113.606 195.369 112.075C195.369 110.544 195.038 105.818 194.342 105.485C193.646 105.219 192.884 105.152 192.155 105.252C191.823 105.352 191.624 107.449 191.624 107.449C191.624 107.449 189.868 107.182 189.404 107.549C188.94 107.915 187.979 122.226 187.979 122.359C187.979 122.493 185.493 119.464 185.195 118.898C184.897 118.332 183.869 114.871 183.405 114.738C182.942 114.605 181.616 114.505 181.45 114.838C181.284 115.17 182.345 120.163 182.411 120.729C182.478 121.294 185.626 128.018 185.792 129.049C185.957 130.081 186.62 138.735 186.819 140.499C187.018 142.263 184.797 162.998 184.3 171.651C183.803 180.305 184.234 188.06 184.764 188.858C185.295 189.657 189.636 192.486 191.956 191.321C194.276 190.156 200.672 185.131 206.77 179.273C212.868 173.415 220.059 165.727 220.059 165.727L220.722 133.742Z" fill="#FFEDE5"/>
<path d="M198.285 163.73C198.285 163.73 198.882 168.389 199.114 172.583C199.114 172.583 200.406 168.622 199.776 161.533L198.285 163.73Z" fill="#DE835C"/>
<path d="M187.614 126.687C187.581 126.687 187.548 126.687 187.515 126.653C187.448 126.587 187.448 126.487 187.515 126.42C188.509 125.289 194.176 121.694 194.408 121.528C194.474 121.494 194.574 121.494 194.64 121.594C194.673 121.661 194.673 121.761 194.574 121.827C194.507 121.861 188.708 125.555 187.747 126.653C187.713 126.687 187.647 126.687 187.614 126.687Z" fill="#472938"/>
<path d="M191.955 120.296C191.955 120.296 191.922 120.296 191.955 120.296C191.856 120.296 191.79 120.229 191.79 120.13C191.79 120.03 192.187 111.176 192.088 109.579C191.989 108.081 191.525 107.648 191.525 107.648C191.458 107.582 191.458 107.482 191.491 107.415C191.558 107.349 191.657 107.349 191.723 107.382C191.79 107.415 192.287 107.915 192.386 109.546C192.486 111.176 192.088 119.797 192.088 120.163C192.088 120.229 192.022 120.296 191.955 120.296Z" fill="#472938"/>
<path d="M192.983 134.175C192.95 134.175 192.95 134.142 192.983 134.175C192.851 134.142 192.817 134.075 192.817 133.975C193.513 130.048 197.855 127.285 198.021 127.185C198.087 127.152 198.186 127.152 198.253 127.252C198.286 127.319 198.286 127.418 198.186 127.485C198.153 127.518 193.778 130.281 193.116 134.075C193.116 134.108 193.049 134.175 192.983 134.175Z" fill="#472938"/>
<path d="M224.402 423.269C224.534 423.968 226.092 426.264 233.946 426.963C241.801 427.662 251.412 424.8 256.151 424.267C260.128 423.835 265.198 422.337 266.723 421.838C266.988 421.771 267.187 421.505 267.187 421.205C267.187 420.739 267.154 419.974 267.12 419.042C260.691 419.142 251.61 421.538 240.707 423.036C232.488 424.168 226.953 422.004 224.534 420.706C224.402 421.572 224.368 422.404 224.402 423.269Z" fill="#3B2645"/>
<path d="M266.126 403.732C263.243 403.998 262.05 406.394 260.658 407.193C259.266 407.992 255.157 408.325 255.521 403.099C255.886 397.874 251.876 396.31 251.876 396.31C250.782 396.343 247.832 402.201 242.828 408.524C237.824 414.848 225.827 418.176 225.297 418.376C224.998 418.476 224.766 419.574 224.601 420.706C227.02 421.971 232.554 424.167 240.773 423.036C251.644 421.538 260.757 419.142 267.187 419.042C267.087 415.614 266.889 409.756 266.557 407.26C266.358 406.294 266.259 405.03 266.126 403.732Z" fill="#AB8DA8"/>
<path d="M255.521 403.133C255.19 408.359 259.266 408.026 260.658 407.227C262.05 406.428 263.276 404.032 266.127 403.766C265.861 400.404 265.663 396.81 265.663 396.81L251.843 396.344C251.876 396.344 255.853 397.941 255.521 403.133Z" fill="#FFEDE5"/>
<path d="M240.341 416.047C246.837 415.448 255.52 404.265 255.52 404.265C255.487 403.899 255.487 403.5 255.52 403.133C255.851 397.908 251.875 396.344 251.875 396.344C250.781 396.377 247.831 402.235 242.827 408.559C240.905 411.021 237.889 413.018 234.939 414.549C236.464 415.748 238.386 416.28 240.341 416.047Z" fill="#3B2645"/>
<path d="M201.202 421.272C201.766 423.036 205.378 423.668 213.365 423.668C221.352 423.668 225.163 409.423 228.411 406.528C231.659 403.665 238.386 393.814 238.386 392.116C238.386 391.617 237.392 390.385 235.967 388.854C234.542 391.917 231.36 398.074 226.688 402.5C222.81 406.195 222.644 418.609 213 420.906C208.493 421.971 204.284 420.773 201.103 419.208C200.97 419.907 201.036 420.606 201.202 421.272Z" fill="#3B2645"/>
<path d="M226.092 379.302C222.678 382.963 223.772 387.423 223.606 389.221C223.441 391.018 217.309 391.484 216.348 391.084C215.387 390.685 214.36 389.187 212.438 389.221C211.278 389.254 210.217 389.82 209.588 390.785C209.09 397.142 208.196 404.697 207.798 407.692C207.135 412.652 204.285 413.916 202.86 414.915C201.866 415.58 201.203 417.544 201.07 419.242C204.252 420.806 208.461 422.004 212.968 420.939C222.645 418.676 222.778 406.228 226.655 402.534C231.328 398.107 234.51 391.983 235.935 388.888C232.488 385.16 226.523 379.801 226.092 379.302Z" fill="#AB8DA8"/>
<path d="M212.405 389.188C214.36 389.154 215.354 390.652 216.315 391.051C217.277 391.451 223.408 390.985 223.573 389.188C223.739 387.39 222.645 382.93 226.059 379.269C225.462 378.537 223.408 374.709 223.408 374.709L209.787 381.466C210.019 383.063 209.853 386.658 209.521 390.752C210.184 389.787 211.278 389.221 212.405 389.188Z" fill="#FFEDE5"/>
<path d="M210.946 411.553C215.785 409.789 216.315 391.051 216.315 391.051C215.354 390.652 214.327 389.154 212.404 389.187C211.245 389.22 210.184 389.786 209.554 390.751C209.057 397.108 208.162 404.664 207.765 407.659C207.599 409.19 207.069 410.655 206.24 411.953C207.831 412.219 209.455 412.052 210.946 411.553Z" fill="#3B2645"/>
<path d="M268.149 204.368C268.149 204.368 285.648 234.123 285.648 249.2C285.648 264.277 270.601 314.701 270.336 321.49C270.071 328.28 275.407 343.124 273.717 358.101C272.027 373.079 265.663 396.776 265.663 396.776C265.663 396.776 257.113 398.074 251.844 396.31C251.844 396.31 251.612 351.778 248.496 333.572C245.381 315.366 242.962 276.792 242.962 276.792C242.962 276.792 210.981 311.505 209.953 317.263C208.926 323.021 214.792 326.816 217.576 344.189C220.36 361.563 223.442 374.743 223.442 374.743C223.442 374.743 217.145 382.198 209.821 381.499C209.821 381.499 182.546 319.826 184.103 311.772C185.661 303.717 217.211 244.407 218.371 237.385C219.531 230.362 220.36 221.442 221.818 212.289L268.149 204.368Z" fill="#AB8DA8"/>
<path d="M246.475 224.371C257.544 222.507 266.326 215.851 271.662 210.725C269.607 206.864 268.149 204.401 268.149 204.401L221.784 212.289C221.453 214.353 221.155 216.416 220.89 218.447C225.165 221.708 233.848 226.501 246.475 224.371Z" fill="#3B2645"/>
<g opacity="0.5">
<path opacity="0.5" d="M242.995 276.792V262.813C242.995 262.813 238.819 254.492 238.421 247.536L239.382 268.038L230.302 290.97L242.995 276.792Z" fill="#543753"/>
</g>
<path d="M221.817 193.452C222.778 198.211 221.817 212.29 221.817 212.29C221.817 212.29 224.137 217.515 236.598 219.579C249.059 221.642 268.149 204.369 268.149 204.369C266.359 200.308 266.061 195.649 266.193 192.054C238.388 187.761 221.817 193.452 221.817 193.452Z" fill="#FFEDE5"/>
<path d="M266.921 200.641C266.292 197.812 266.06 194.95 266.192 192.054C262.845 191.522 259.663 191.155 256.647 190.889L257.41 197.612L266.921 200.641Z" fill="#DE835C"/>
<path d="M238.057 158.205C255.622 156.608 260.957 141.597 262.548 133.21L257.842 131.879L234.908 129.549L228.181 131.28C224.635 143.561 222.779 159.57 238.057 158.205Z" fill="#FFEDE5"/>
<path d="M275.736 136.838L268.71 134.907C264.269 173.316 272.621 172.284 272.621 172.284L274.941 166.193L275.736 136.838Z" fill="#FFEDE5"/>
<path d="M266.789 186.263C272.722 180.938 272.622 172.284 272.622 172.284C272.622 172.284 264.238 173.316 268.712 134.908L262.547 133.21C260.923 141.597 255.588 156.641 238.056 158.205C222.778 159.57 224.634 143.561 228.213 131.313L221.287 133.11C221.287 133.11 213.234 159.504 213.002 169.056C212.836 175.18 216.481 183.467 219.166 188.626C237.161 180.938 266.789 186.263 266.789 186.263Z" fill="#AB8DA8"/>
<path d="M266.192 192.054C266.258 190.091 266.457 188.16 266.822 186.23C266.822 186.23 237.194 180.904 219.165 188.593C220.656 191.488 221.816 193.419 221.816 193.419C221.816 193.419 238.387 187.761 266.192 192.054Z" fill="#3B2645"/>
<path d="M268.712 134.875C268.712 134.875 271.96 153.047 260.029 174.414L258.67 188.926L259.83 222.042C259.83 222.042 254.528 223.473 251.711 223.473C248.894 223.473 244.95 224.771 244.95 224.771L244.387 219.413L241.404 219.479C241.404 219.479 240.542 208.596 244.254 199.676C247.966 190.756 249.756 185.365 250.352 176.178C250.949 166.992 248.894 154.678 255.688 135.94L268.712 134.875Z" fill="white"/>
<path d="M274.976 166.193L272.988 158.638L272.656 172.251L274.976 166.193Z" fill="#DE835C"/>
<path d="M236.531 217.549C236.879 217.549 237.161 217.116 237.161 216.583C237.161 216.05 236.879 215.618 236.531 215.618C236.183 215.618 235.901 216.05 235.901 216.583C235.901 217.116 236.183 217.549 236.531 217.549Z" fill="#DE835C"/>
<path d="M236.034 119.098C236.034 119.098 236.167 132.811 228.809 151.05C221.452 169.289 220.855 175.712 222.579 193.419C224.302 211.125 220.06 225.27 220.06 225.27C220.06 225.27 200.44 229.364 192.652 218.747C192.652 218.747 202.263 196.514 206.572 169.954C210.88 143.395 221.286 133.044 221.286 133.044C221.286 133.044 223.275 127.319 227.782 127.918C227.782 127.985 231.427 118.865 236.034 119.098Z" fill="white"/>
<path d="M211.51 207.664C211.41 207.664 211.344 207.597 211.344 207.497C210.018 182.735 217.177 160.236 221.021 148.154L221.286 147.355C221.32 147.256 221.419 147.222 221.485 147.256C221.585 147.289 221.618 147.389 221.585 147.455L221.32 148.254C217.475 160.336 210.35 182.768 211.676 207.464C211.676 207.597 211.609 207.664 211.51 207.664Z" fill="#472938"/>
<path d="M223.01 142.396H222.977C222.878 142.363 222.845 142.263 222.878 142.197C225.628 132.711 227.617 127.985 227.65 127.952C227.683 127.852 227.783 127.819 227.882 127.852C227.981 127.885 228.015 127.985 227.981 128.085C227.948 128.118 225.96 132.844 223.242 142.297C223.143 142.33 223.077 142.396 223.01 142.396Z" fill="#472938"/>
<path d="M210.947 162.865H210.914C210.814 162.832 210.781 162.765 210.781 162.666C213.665 151.449 221.055 133.244 221.121 133.044C221.154 132.944 221.254 132.911 221.353 132.944C221.453 132.977 221.486 133.077 221.453 133.177C221.386 133.344 213.996 151.549 211.113 162.732C211.113 162.799 211.046 162.865 210.947 162.865Z" fill="#472938"/>
<path d="M244.42 219.612C244.32 219.612 244.254 219.546 244.254 219.446C244.254 219.346 244.188 208.23 246.342 203.071C246.375 202.971 246.475 202.938 246.574 202.971C246.673 203.004 246.707 203.104 246.673 203.204C244.552 208.296 244.619 219.346 244.619 219.446C244.586 219.546 244.519 219.612 244.42 219.612Z" fill="#472938"/>
<path d="M247.865 217.715C247.765 217.715 247.699 217.649 247.699 217.549C247.699 217.449 247.335 208.163 249.323 201.174C251.311 194.251 251.842 182.436 251.842 182.336C251.842 182.236 251.908 182.169 252.007 182.169C252.107 182.169 252.173 182.236 252.173 182.336C252.173 182.469 251.643 194.284 249.654 201.274C247.666 208.197 248.031 217.449 248.031 217.516C248.031 217.616 247.964 217.715 247.865 217.715Z" fill="#472938"/>
<path d="M254.627 202.804C254.594 202.804 254.594 202.804 254.627 202.804C254.494 202.771 254.461 202.705 254.461 202.605C255.753 195.815 254.726 181.836 254.726 181.67C254.726 181.57 254.792 181.503 254.892 181.503C254.991 181.503 255.057 181.57 255.057 181.67C255.057 181.803 256.085 195.848 254.792 202.671C254.759 202.738 254.693 202.804 254.627 202.804Z" fill="#472938"/>
<path d="M257.08 175.978C256.947 175.945 256.914 175.879 256.914 175.779C256.947 175.646 259.002 162.932 260.99 157.074C261.024 156.974 261.123 156.941 261.189 156.974C261.289 157.007 261.322 157.107 261.289 157.174C259.333 162.998 257.245 175.679 257.245 175.812C257.245 175.912 257.179 175.978 257.08 175.978Z" fill="#472938"/>
<path d="M254.627 174.58C254.561 174.58 254.495 174.514 254.462 174.447C254.462 174.381 253.368 168.756 254.793 158.605C254.793 158.505 254.892 158.438 254.992 158.472C255.091 158.472 255.157 158.571 255.124 158.671C253.732 168.789 254.793 174.347 254.793 174.414C254.793 174.481 254.727 174.58 254.627 174.58Z" fill="#472938"/>
<path d="M257.643 108.514L257.841 131.878H234.676L236.896 111.043L257.643 108.514Z" fill="#FFEDE5"/>
<path d="M236.896 111.043C236.896 111.043 240.277 133.176 257.742 120.196L257.643 108.514L236.896 111.043Z" fill="#DE835C"/>
<path d="M233.171 107.495C234.667 107.067 235.189 104.284 234.337 101.279C233.485 98.273 231.582 96.1834 230.085 96.6112C228.589 97.0389 228.067 99.8222 228.919 102.828C229.771 105.833 231.674 107.923 233.171 107.495Z" fill="#DE835C"/>
<path d="M257.675 110.711C257.675 110.711 257.609 116.402 257.344 120.196C257.344 120.196 254.626 128.817 255.852 136.838C257.079 144.859 256.681 150.783 254.759 153.646L256.913 152.614C256.913 152.614 267.949 152.747 267.816 136.605C267.816 136.605 273.384 127.552 265.033 116.935C256.681 106.318 261.387 100.526 261.387 100.526C261.387 100.526 257.94 102.257 257.675 110.711Z" fill="#3B2645"/>
<path d="M261.321 100.493C261.321 100.493 257.94 102.257 257.642 110.71C257.642 110.71 257.576 116.402 257.311 120.196C258.636 116.668 259.763 113.074 260.691 109.412C258.802 103.588 261.321 100.493 261.321 100.493Z" fill="#3B2645"/>
<path d="M262.71 102.331C263.609 99.3396 263.131 96.5485 261.642 96.0969C260.152 95.6454 258.216 97.7044 257.317 100.696C256.417 103.687 256.896 106.478 258.385 106.93C259.875 107.381 261.811 105.322 262.71 102.331Z" fill="#FFEDE5"/>
<path d="M231.263 85.7149C231.263 85.7149 230.666 103.022 232.953 110.278C235.239 117.533 240.94 122.126 244.685 122.126C248.43 122.126 255.721 119.397 258.571 107.748C261.421 96.0991 261.089 81.488 248.86 77.6604C236.631 73.8329 231.263 81.8541 231.263 85.7149Z" fill="#FFEDE5"/>
<path d="M259.963 98.2294C259.963 98.2294 259.3 93.5365 256.781 90.9737C254.262 88.411 249.092 86.6802 250.054 82.5865C250.054 82.5865 246.739 84.5501 240.774 84.5501C234.809 84.5501 230.699 89.2097 231.296 97.131L230.533 96.5985C230.533 96.5985 227.683 85.3489 231.163 79.8906C234.676 74.4322 242.961 70.9708 249.656 72.8679C256.35 74.765 263.873 79.2582 263.211 88.0448C263.012 90.8406 262.614 93.6031 262.017 96.3323C262.017 96.299 260.095 96.5985 259.963 98.2294Z" fill="#3B2645"/>
<path d="M236.599 99.5939C236.068 99.5939 235.638 99.1946 235.604 98.662L235.571 98.0629C235.571 97.5304 235.969 97.0977 236.499 97.0645C237.029 97.0645 237.46 97.4638 237.493 97.9964L237.527 98.5955C237.527 99.128 237.129 99.5939 236.599 99.5939Z" fill="#472938"/>
<path d="M251.412 100.093C250.882 100.027 250.518 99.5274 250.617 98.9949L250.716 98.3958C250.783 97.8633 251.28 97.4972 251.81 97.597C252.34 97.6636 252.705 98.1628 252.605 98.6953L252.506 99.2944C252.407 99.827 251.909 100.16 251.412 100.093Z" fill="#472938"/>
<path d="M233.151 95.5336C233.151 95.5336 234.046 94.5351 236.134 94.5018C238.222 94.4685 238.885 94.6682 239.017 94.0026C239.15 93.3369 234.676 91.6395 233.151 95.5336Z" fill="#472938"/>
<path d="M254.925 95.2342C254.925 95.2342 253.931 94.3023 251.677 94.4022C249.424 94.502 248.761 94.735 248.595 94.1026C248.429 93.4702 253.169 91.44 254.925 95.2342Z" fill="#472938"/>
<path d="M249.027 109.945L240.277 109.646C240.277 109.646 240.741 115.67 244.652 115.57C248.563 115.47 249.027 109.945 249.027 109.945Z" fill="white"/>
<path d="M244.12 107.316C243.557 107.316 243.027 107.182 242.596 106.983C242.231 106.783 242.032 106.517 241.933 106.217C241.734 105.452 242.132 103.588 242.596 101.258L242.762 100.526C243.524 96.7649 241.469 95.7332 241.37 95.6999C241.27 95.6666 241.237 95.5335 241.27 95.4336C241.303 95.3338 241.436 95.3005 241.535 95.3338C241.635 95.3671 243.955 96.532 243.126 100.592L242.96 101.325C242.496 103.521 242.132 105.452 242.298 106.117C242.364 106.317 242.496 106.484 242.762 106.65C243.391 106.983 244.385 107.049 245.313 106.75C245.413 106.716 245.545 106.783 245.579 106.883C245.612 106.983 245.545 107.116 245.446 107.149C245.015 107.249 244.551 107.316 244.12 107.316Z" fill="#472938"/>
<path d="M275.737 136.838C275.737 136.838 282.664 137.171 286.11 147.089C289.557 156.974 300.46 185.73 300.891 191.022C301.322 196.314 299.698 200.574 292.175 202.139C285.779 203.47 268.811 198.511 267.419 198.378C266.027 198.245 262.083 198.145 260.757 195.848C259.432 193.552 258.703 189.658 258.703 189.658C258.703 189.658 255.223 188.326 254.626 188.326C254.03 188.326 249.821 188.593 249.423 187.96C249.026 187.328 249.026 186.13 249.158 185.564C249.158 185.564 248.429 184.233 248.661 183.434C248.661 183.434 247.899 181.503 247.965 181.071C248.031 180.638 250.086 179.373 250.517 179.273C250.948 179.174 255.919 178.974 255.919 178.974C255.919 178.974 254.428 177.143 254.162 177.077C253.897 177.01 250.351 177.143 250.351 177.143L250.285 178.042C250.285 178.042 249.324 177.21 249.158 176.744C248.992 176.278 249.291 174.913 249.688 174.747C250.086 174.581 254.792 173.016 256.217 173.516C257.642 174.015 262.183 176.811 262.779 177.742C263.376 178.674 266.723 188.027 267.783 188.726C268.844 189.425 274.279 190.19 282.962 188.326L270.6 156.941L275.737 136.838Z" fill="#FFEDE5"/>
</svg>
