<svg width="372" height="487" viewBox="0 0 372 487" fill="none" xmlns="http://www.w3.org/2000/svg">
<circle opacity="0.3" cx="183.656" cy="239.166" r="168.823" fill="#4E46B4"/>
<g clip-path="url(#clip0_23_6576)">
<path d="M175.714 471.926C168.494 471.939 161.294 471.177 154.238 469.653C141.905 467.125 130.287 461.898 120.222 454.349C110.156 446.801 101.894 437.118 96.0298 426C91.3766 415.6 87.9198 404.707 85.7258 393.53L85.2197 391.402C77.9888 360.664 68.878 328.158 52.0663 298.792C49.3547 294.065 46.3901 289.339 43.5339 284.794C36.6239 274.501 30.7734 263.538 26.0714 252.071C18.8405 232.409 20.1783 212.856 30.0484 199.976C31.3485 197.975 33.0402 196.256 35.022 194.924C37.0038 193.591 39.2349 192.671 41.5815 192.219C43.0115 192.047 44.4617 192.169 45.8423 192.579C47.2229 192.988 48.5045 193.676 49.6078 194.6C50.4684 195.285 51.1742 196.144 51.6789 197.12C52.1836 198.096 52.4758 199.168 52.5363 200.265H50.1863C50.1297 199.5 49.914 198.755 49.553 198.078C49.1919 197.401 48.6934 196.806 48.0893 196.332C47.2309 195.621 46.2384 195.088 45.1703 194.766C44.1023 194.444 42.9803 194.338 41.8708 194.456C37.7976 195.382 34.2377 197.837 31.9284 201.311C22.5644 213.613 21.0821 232.265 28.313 251.17C32.9751 262.554 38.7899 273.434 45.667 283.639C48.5232 288.221 51.4878 292.947 54.2355 297.709C71.0834 327.293 80.3027 359.979 87.5336 390.897L88.0397 393.025C90.1878 404.017 93.5841 414.729 98.1629 424.954C103.861 435.758 111.893 445.166 121.678 452.496C131.463 459.827 142.757 464.899 154.744 467.344C178.985 472.138 204.135 468.736 226.221 457.676C235.065 453.743 243.049 448.117 249.721 441.116C256.509 432.918 261.741 423.553 265.159 413.481C271.197 397.679 276.005 381.012 280.344 364.957C287.033 341.002 293.938 316.217 305.652 293.777C309.267 287.211 312.883 280.753 316.715 274.512C323.891 263.31 329.946 251.432 334.792 239.048C338.95 227.286 339.131 217.401 335.371 210.186C334.051 207.78 332.217 205.692 329.999 204.071C327.781 202.45 325.233 201.336 322.536 200.806C320.653 200.361 318.692 200.361 316.809 200.806C314.926 201.251 313.173 202.128 311.69 203.367L310.135 201.599C311.879 200.11 313.948 199.048 316.176 198.496C318.404 197.945 320.73 197.921 322.97 198.425C326.03 199.055 328.913 200.352 331.413 202.223C333.913 204.094 335.968 206.493 337.432 209.248C341.517 217.185 341.336 227.503 336.961 239.913C332.065 252.454 325.912 264.468 318.595 275.774C314.98 282.016 311.003 288.437 307.749 294.931C296.18 317.155 289.31 341.832 282.658 365.643C278.139 381.805 273.475 398.509 267.365 414.383C263.869 424.734 258.502 434.357 251.529 442.776C244.637 450 236.396 455.809 227.27 459.877C211.201 467.682 193.585 471.799 175.714 471.926Z" fill="#AB8DA8"/>
<path d="M202.25 51.8429C204.12 48.882 205.191 45.4893 205.359 41.9938C205.563 40.4239 205.42 38.8285 204.939 37.32C204.458 35.8115 203.651 34.4267 202.576 33.2631C201.672 32.3972 200.551 31.7118 199.719 30.7738C198.888 29.8358 198.49 28.8617 197.803 27.9597C197.058 26.9921 196.1 26.2088 195.003 25.6707C193.906 25.1326 192.699 24.8542 191.476 24.8571C188.982 24.8571 186.342 26.0116 184.245 24.8571C182.944 24.2077 182.076 22.9089 180.63 22.1874C179.269 21.4961 177.707 21.3045 176.219 21.6462C174.919 22.0987 173.546 22.3067 172.17 22.2595C170.218 21.9709 168.88 20.2392 167.144 19.2651C166.252 18.81 165.271 18.5551 164.27 18.5183C163.269 18.4815 162.272 18.6637 161.349 19.0522C160.425 19.4406 159.598 20.0258 158.926 20.7669C158.253 21.5079 157.751 22.3868 157.455 23.3418C157.219 24.2529 157.219 25.2087 157.455 26.1198C157.853 28.3205 159.371 30.0883 159.48 32.289C159.588 34.4897 158.251 36.4018 159.48 38.35C160.709 40.2982 162.517 40.3703 163.384 42.2103C164.541 44.6996 163.384 47.9465 164.433 50.6163C164.975 52.3119 165.264 54.7291 166.855 55.8114C169.061 57.3266 173.869 56.0639 176.508 55.8114L186.74 54.9816C191.259 54.5487 196.827 54.9816 200.912 52.7448C201.406 52.521 201.858 52.2161 202.25 51.8429Z" fill="#3B2645"/>
<path d="M167.544 50.2555C167.185 49.7636 166.714 49.3633 166.171 49.0873C165.627 48.8113 165.026 48.6675 164.416 48.6675C163.807 48.6675 163.205 48.8113 162.662 49.0873C162.118 49.3633 161.648 49.7636 161.289 50.2555C158.144 53.8633 163.458 61.0787 167.544 61.5116C167.781 57.7633 167.781 54.0038 167.544 50.2555Z" fill="#FFEDE5"/>
<path d="M218.34 110.685C217.387 116.762 216.108 122.783 214.507 128.723C214.254 129.842 214.037 130.924 213.893 131.97C213.748 133.016 213.604 133.81 213.423 135.145C213.423 135.398 213.423 135.686 213.423 135.939C213.423 136.805 213.17 137.706 213.061 138.681L208.506 181.071C180.197 188.828 150.659 181.071 150.659 181.071C150.659 181.071 150.659 180.53 150.659 179.484C150.189 174.686 148.743 159.425 147.297 142.216C147.297 142.216 147.297 141.964 147.297 141.855C147.311 141.591 147.311 141.326 147.297 141.062C146.682 133.846 146.104 126.198 145.634 118.91C144.766 106.247 144.224 94.5581 144.332 87.3065C144.332 84.6368 150.587 84.9254 154.853 84.3482C157.998 83.9153 161.216 83.6267 164 83.4824C166.784 83.338 168.881 83.2659 170.291 83.2659H171.882C171.882 83.2659 172.243 79.117 172.243 79.0809L173.219 68.9071C173.694 69.0293 174.178 69.1137 174.665 69.1597C175.56 69.327 176.467 69.4235 177.377 69.4483C178.57 69.4483 179.691 69.4483 180.739 69.4483L182.294 69.2679H183.198C184.21 69.0875 185.186 68.8711 186.09 68.6185C186.994 68.366 187.283 68.2578 187.862 68.0774C190.503 67.2328 193.011 66.0181 195.31 64.4696L195.635 64.2532L196.25 63.7842L196.683 63.4595C196.683 63.9646 196.683 64.181 196.683 64.3975C196.394 66.7786 196.069 69.8091 195.924 72.8035C195.924 74.896 195.707 76.9524 195.635 78.7202C195.563 80.4879 194.984 83.0494 196.25 83.9514C196.701 84.2045 197.189 84.387 197.696 84.4925C199.68 84.8052 201.689 84.938 203.697 84.8894C204.312 84.8894 204.927 84.8894 205.541 84.8894C207.082 84.7997 208.628 84.7997 210.169 84.8894C211.246 84.8862 212.313 85.0985 213.306 85.5137C214.3 85.9289 215.2 86.5385 215.954 87.3065C216.891 88.6601 217.486 90.2196 217.689 91.8523L218.123 94.8106C218.811 100.076 218.884 105.403 218.34 110.685Z" fill="#FFEDE5"/>
<path d="M196.539 63.2067C196.05 65.7885 194.994 68.2302 193.446 70.3562C191.899 72.4821 189.898 74.2396 187.589 75.5021C185.28 76.7647 182.719 77.501 180.091 77.6581C177.462 77.8153 174.831 77.3893 172.388 76.4109L173.075 68.9429C177.169 69.7311 181.386 69.6265 185.436 68.6364C189.486 67.6463 193.273 65.7941 196.539 63.2067Z" fill="#E0855C" fill-opacity="0.1"/>
<path d="M168.266 39.4323C166.169 41.597 165.988 46.4313 165.844 51.7707C165.301 68.0055 170.182 73.0563 178.461 73.9583C186.741 74.8602 195.454 71.6493 197.225 56.6412C198.129 49.101 199.069 42.2103 196.322 38.9272C192.381 34.0929 174.629 32.7941 168.266 39.4323Z" fill="#FFEDE5"/>
<path d="M195.997 54.4404C195.997 54.4404 198.528 47.7301 202.541 51.3017C206.554 54.8734 201.022 65.0111 194.876 64.2534C194.948 64.2534 194.117 56.7494 195.997 54.4404Z" fill="#FFEDE5"/>
<path d="M200.769 54.3681C199.82 54.6639 198.97 55.2128 198.311 55.9555C197.564 56.5778 196.96 57.3529 196.539 58.2283C196.539 58.4809 196.792 58.6613 196.973 58.4809C197.483 57.9774 197.965 57.4475 198.419 56.8935C198.749 57.2563 199.157 57.54 199.612 57.7233C199.974 57.7233 200.263 57.3986 200.118 57.1099C199.868 56.7279 199.534 56.4072 199.142 56.1719C199.817 55.7407 200.458 55.2582 201.058 54.7288C201.07 54.6854 201.071 54.64 201.061 54.5962C201.052 54.5523 201.032 54.5113 201.004 54.4762C200.976 54.4412 200.94 54.4132 200.899 54.3944C200.859 54.3757 200.814 54.3666 200.769 54.3681Z" fill="#E0855C" fill-opacity="0.1"/>
<path d="M172.966 51.4097C172.966 51.4097 171.556 51.9148 171.773 49.4255C171.99 46.9362 172.966 47.5134 172.966 47.5134C172.966 47.5134 173.942 47.5134 173.797 49.4616C173.653 51.4097 172.966 51.4097 172.966 51.4097Z" fill="#3B2645"/>
<path d="M187.175 51.4097C187.175 51.4097 185.801 51.9148 186.018 49.4255C186.235 46.9362 187.175 47.5134 187.175 47.5134C187.175 47.5134 188.151 47.5134 188.007 49.4616C187.862 51.4097 187.175 51.4097 187.175 51.4097Z" fill="#3B2645"/>
<path d="M174.485 43.8699C173.917 43.5489 173.262 43.4145 172.613 43.4858C171.964 43.557 171.354 43.8302 170.87 44.2668C170.845 44.3161 170.834 44.3708 170.836 44.4259C170.839 44.4809 170.855 44.5343 170.884 44.5813C170.913 44.6282 170.954 44.6669 171.002 44.694C171.05 44.721 171.104 44.7354 171.159 44.7358C171.665 44.7358 172.099 44.4471 172.605 44.4111C173.135 44.3859 173.665 44.4719 174.16 44.6636C174.63 44.8079 174.955 44.0864 174.485 43.8699Z" fill="#3B2645"/>
<path d="M189.308 45.0963C188.729 43.6532 186.235 43.545 185.15 44.4109C185.098 44.4513 185.055 44.5032 185.026 44.5627C184.997 44.6221 184.981 44.6874 184.981 44.7536C184.981 44.8198 184.997 44.8851 185.026 44.9445C185.055 45.004 185.098 45.0559 185.15 45.0963C185.8 45.1504 186.453 45.1504 187.103 45.0963C187.628 45.1808 188.139 45.3387 188.621 45.5653C188.683 45.6562 188.779 45.7187 188.888 45.739C188.996 45.7593 189.108 45.7358 189.199 45.6736C189.291 45.6114 189.353 45.5156 189.374 45.4074C189.394 45.2991 189.37 45.1872 189.308 45.0963Z" fill="#3B2645"/>
<path d="M175.821 63.0265C178.871 63.4254 181.971 62.8974 184.715 61.5112C184.305 62.4739 183.697 63.3403 182.931 64.0548C182.165 64.7693 181.258 65.3161 180.268 65.6601C177.123 66.526 175.821 63.0265 175.821 63.0265Z" fill="white"/>
<path d="M157.564 87.2706C165.879 93.0791 166.639 104.371 162.589 113.391C159.842 119.415 154.744 123.637 151.743 129.337C148.616 134.865 144.985 140.094 140.897 144.958C131.931 156.323 123.398 166.605 120.108 170.501C108.792 183.994 85.0025 201.816 76.4339 208.021C74.4816 209.464 73.3247 210.258 73.3247 210.258C73.3247 210.258 65.1177 205.965 67.2869 198.028C67.2869 198.028 99.8257 163.538 104.634 156.503C109.948 147.359 114.775 137.942 119.096 128.29C124.64 117.588 130.412 107.029 136.414 96.6147C139.162 91.8164 142.668 85.7915 148.706 84.7092C151.143 84.4359 153.603 84.9547 155.72 86.1883C156.36 86.5048 156.976 86.8665 157.564 87.2706Z" fill="#FFEDE5"/>
<path d="M67.2874 198.064C68.1778 197.996 69.0723 197.996 69.9628 198.064C69.9628 198.064 77.7721 202.393 76.4344 208.021C76.4344 208.021 75.6028 208.779 74.3013 209.934C72.9997 211.088 71.5897 212.459 69.8905 214.191C68.1912 215.922 64.3227 221.406 62.6596 220.937C62.272 220.794 61.9333 220.544 61.6835 220.216L58.3211 216.608C56.4411 214.515 53.2957 210.98 55.6818 208.202C53.9464 209.248 49.8972 211.81 47.9087 210.583L47.0771 209.248C47.0771 209.248 53.0426 204.811 55.5011 202.61C58.8176 199.835 62.9628 198.236 67.2874 198.064Z" fill="#FFEDE5"/>
<path d="M167.434 142.542C167.422 142.734 167.422 142.926 167.434 143.119C167.434 143.119 167.76 143.119 167.687 143.119L167.434 142.542Z" fill="#D6BED3"/>
<path d="M297.227 485.455C293.395 485.852 289.526 486.177 285.585 486.357L63.0562 486.538H62.3692H61.2123L57.3077 486.177C56.4159 486.177 55.5607 485.823 54.9301 485.194C54.2996 484.565 53.9453 483.712 53.9453 482.822C53.9453 481.932 54.2996 481.078 54.9301 480.449C55.5607 479.82 56.4159 479.466 57.3077 479.466L61.2485 479.106H62.3692H63.0923L285.585 479.286C289.49 479.286 293.359 479.755 297.227 480.188C297.78 480.373 298.261 480.727 298.601 481.2C298.942 481.672 299.125 482.24 299.125 482.822C299.125 483.404 298.942 483.971 298.601 484.444C298.261 484.916 297.78 485.27 297.227 485.455Z" fill="#C6C6C6"/>
<path d="M180.849 259.468C177.522 286.057 173.618 309.182 173.618 309.182C174.16 315.604 174.413 322.567 174.413 329.71C174.413 343.708 173.473 358.572 172.28 371.668C170.761 388.372 168.665 402.586 167.761 409.729V410.631C169.098 458.001 155.577 464.278 149.25 453.924C142.923 443.57 149.25 413.048 149.25 413.048C149.27 412.772 149.27 412.495 149.25 412.219C146.588 398.044 144.813 383.718 143.935 369.323C141.766 334.472 145.49 310.625 145.056 306.296C137.5 230.534 148.057 188.756 148.057 188.756C149.705 182.686 152.681 177.055 156.77 172.269C164.471 163.971 173.726 166.064 179.547 176.201C180.159 177.241 180.714 178.313 181.21 179.412C183.582 185.235 184.927 191.423 185.187 197.703C185.765 213.397 183.56 237.605 180.849 259.468Z" fill="#F5A784"/>
<path d="M218.196 367.483C217.355 382.177 215.592 396.805 212.917 411.28L212.592 413.048C212.592 413.048 218.919 443.678 212.592 453.924C206.265 464.17 192.888 458.181 194.081 411.28C194.081 411.064 194.081 410.847 194.081 410.667C193.068 403.884 191.044 389.201 189.453 371.812C188.224 358.608 187.284 343.816 187.284 329.818C187.284 322.602 187.573 315.676 188.115 309.218C188.115 309.218 184.102 286.092 180.884 259.539C178.173 237.64 175.931 213.433 176.871 197.883C177.142 191.601 178.5 185.413 180.884 179.592C181.358 178.459 181.914 177.362 182.548 176.309C189.236 164.728 200.372 163.718 208.579 176.778C210.93 180.564 212.777 184.639 214.074 188.9C214.074 188.9 224.631 230.569 217.075 306.44C216.533 310.697 220.112 333.714 218.196 367.483Z" fill="#F5A784"/>
<path d="M66.4205 221.478C67.1408 222.31 68.0355 222.974 69.0414 223.423C70.0472 223.871 71.1396 224.094 72.2413 224.075C72.746 223.958 73.2216 223.74 73.6394 223.434C74.0572 223.128 74.4085 222.741 74.6721 222.296C74.9357 221.851 75.1061 221.357 75.173 220.844C75.2399 220.332 75.2019 219.811 75.0614 219.313C74.6409 218.216 73.9583 217.237 73.0729 216.463C67.6136 211.051 62.0097 205.64 56.3335 200.625C55.3849 199.558 54.1172 198.824 52.7181 198.533C51.4168 198.532 50.1576 198.992 49.1645 199.831C48.1715 200.67 47.5089 201.834 47.2949 203.114C47.2949 205.423 49.2834 206.289 50.9103 207.588C56.0442 212.134 61.1781 216.896 66.4205 221.478Z" fill="#3B2645"/>
<path d="M65.6231 215.093C65.8481 214.861 66.0316 214.593 66.1654 214.299C66.2571 213.926 66.2624 213.538 66.1809 213.163C66.0995 212.788 65.9334 212.436 65.6954 212.134C64.3577 209.934 61.61 206.398 58.8984 206.074C58.0032 206.028 57.1116 206.217 56.3124 206.622C55.5132 207.027 54.8342 207.634 54.343 208.382C53.5316 209.547 53.0157 210.891 52.8393 212.299C52.663 213.706 52.8316 215.136 53.3307 216.464C54.1242 218.853 55.7544 220.877 57.9223 222.164C59.004 222.621 60.2211 222.644 61.3193 222.227C62.4174 221.81 63.3117 220.986 63.8154 219.927C64.3577 218.592 64.1769 216.969 65.0446 215.85C65.2092 215.578 65.4032 215.324 65.6231 215.093Z" fill="#FFEDE5"/>
<path d="M203.986 87.2704C195.634 93.0788 194.875 104.371 198.961 113.39C201.672 119.415 206.77 123.636 209.807 129.336C212.959 134.849 216.589 140.076 220.653 144.958C229.619 156.322 238.188 166.604 241.442 170.501C252.794 184.066 276.584 201.816 285.152 208.021L288.298 210.258C288.298 210.258 296.469 205.965 294.299 198.028C294.299 198.028 261.761 163.538 256.952 156.503C251.624 147.366 246.796 137.948 242.49 128.29C236.923 117.467 231.174 107.041 225.136 96.6144C222.389 91.8161 218.918 85.7912 212.844 84.7089C210.407 84.4383 207.948 84.9569 205.83 86.1881C205.189 86.5029 204.573 86.8647 203.986 87.2704Z" fill="#FFEDE5"/>
<path d="M294.264 198.064C293.361 197.996 292.455 197.996 291.553 198.064C291.553 198.064 283.743 202.393 285.081 208.021C285.081 208.021 285.949 208.779 287.214 209.933C288.479 211.088 289.962 212.459 291.625 214.19C293.288 215.922 297.229 221.406 298.856 220.937C299.238 220.784 299.574 220.536 299.832 220.215L303.158 216.607C305.074 214.515 308.183 210.979 305.833 208.201C307.533 209.248 311.582 211.809 313.607 210.583L314.294 209.248C314.294 209.248 308.328 204.81 305.833 202.609C302.581 199.87 298.516 198.272 294.264 198.064Z" fill="#FFEDE5"/>
<path d="M295.095 221.478C294.375 222.31 293.48 222.974 292.474 223.423C291.468 223.872 290.376 224.095 289.274 224.076C288.763 223.967 288.279 223.755 287.853 223.452C287.428 223.15 287.068 222.764 286.797 222.318C286.526 221.872 286.35 221.375 286.278 220.858C286.207 220.342 286.242 219.816 286.382 219.313C286.833 218.264 287.526 217.337 288.406 216.608C293.878 211.196 299.469 205.917 305.182 200.77C306.125 199.697 307.395 198.962 308.797 198.677C310.094 198.678 311.349 199.139 312.336 199.979C313.323 200.818 313.978 201.981 314.184 203.259C314.184 205.568 312.232 206.434 310.569 207.733C305.471 212.134 300.337 216.896 295.095 221.478Z" fill="#3B2645"/>
<path d="M295.927 215.093C295.68 214.872 295.483 214.601 295.348 214.299C295.272 213.923 295.278 213.535 295.365 213.162C295.452 212.788 295.619 212.438 295.854 212.134C297.156 209.934 299.904 206.398 302.615 206.074C303.511 206.028 304.402 206.217 305.201 206.622C306.001 207.027 306.68 207.634 307.171 208.382C307.973 209.553 308.475 210.902 308.633 212.311C308.79 213.72 308.599 215.146 308.075 216.464C307.305 218.866 305.669 220.897 303.483 222.164C302.401 222.621 301.184 222.644 300.086 222.227C298.988 221.81 298.094 220.986 297.59 219.927C297.084 218.592 297.265 216.969 296.361 215.85L295.927 215.093Z" fill="#FFEDE5"/>
<path d="M218.737 344.358V347.965C218.737 350.382 218.737 352.872 218.737 355.433V358.356C218.737 361.314 218.52 364.38 218.376 367.519C209.014 370.096 199.376 371.538 189.669 371.812C189.271 367.772 188.476 357.021 188.44 355.83C188.44 353.377 187.898 346.45 187.861 345.512C187.645 340.245 187.5 334.978 187.5 329.818C187.5 323.108 187.753 316.542 188.259 310.445C188.259 310.012 188.259 309.615 188.259 309.218C188.259 308.821 184.246 286.129 181.028 259.54C180.667 262.354 180.305 265.168 179.944 267.874C176.907 290.747 173.689 309.218 173.689 309.218C174.231 315.64 174.484 322.603 174.484 329.746C174.484 335.194 174.484 340.57 174.087 346.27C174.087 347.208 173.364 359.258 173.255 360.412C173.002 364.272 172.677 368.06 172.351 371.704C167.29 371.488 162.3 371.163 157.347 370.73C153.443 370.405 148.526 370.189 143.753 369.503C143.536 366.257 143.392 363.154 143.283 360.123C143.283 359.366 143.283 358.608 143.283 357.851C143.283 354.531 143.283 351.393 143.283 348.362V345.981C143.283 324.118 145.416 309.723 145.091 306.296C137.535 230.534 148.092 188.756 148.092 188.756C149.74 182.686 152.716 177.055 156.805 172.269C159.904 172.748 162.945 173.546 165.88 174.65C170.35 175.816 174.964 176.338 179.582 176.201H182.908C186.921 176.201 190.935 175.732 194.912 175.624H197.587C201.399 175.568 205.207 175.931 208.939 176.707C211.17 180.533 212.896 184.632 214.073 188.901C216.994 202.518 218.712 216.364 219.207 230.281C220.432 255.685 219.719 281.145 217.074 306.44C216.64 309.651 218.556 323.397 218.737 344.358Z" fill="#3B2645"/>
<path d="M167.543 410.631C168.05 429.283 166.278 441.549 163.53 448.945C159.336 460.381 152.684 460.237 149.069 454.068C148.092 452.356 147.419 450.489 147.08 448.548C144.441 435.668 149.069 413.192 149.069 413.192C149.089 412.916 149.089 412.639 149.069 412.363C150.867 413.672 152.907 414.616 155.07 415.14C157.498 415.735 160.053 415.53 162.354 414.554C164.655 413.579 166.577 411.886 167.833 409.729L167.543 410.631Z" fill="#AB8DA8"/>
<path d="M214.761 447.539C214.452 449.831 213.717 452.046 212.592 454.069C208.687 460.418 201.962 460.382 197.805 448.08C195.274 440.864 193.647 428.851 194.189 411.245C196.897 413.673 200.384 415.055 204.023 415.141C207.269 414.843 210.353 413.587 212.881 411.533C212.948 412.097 212.948 412.666 212.881 413.229C212.881 413.229 217.003 434.515 214.761 447.539Z" fill="#AB8DA8"/>
<path d="M162.083 421.707C160.252 420.617 158.16 420.041 156.027 420.041C153.895 420.041 151.803 420.617 149.972 421.707C149.904 421.782 149.858 421.874 149.84 421.974C149.823 422.073 149.833 422.176 149.871 422.27C149.908 422.364 149.972 422.445 150.053 422.505C150.135 422.565 150.232 422.601 150.333 422.608C152.141 422.608 153.949 421.851 155.648 421.887C157.637 422.055 159.601 422.443 161.505 423.041C161.668 423.062 161.833 423.029 161.975 422.947C162.118 422.866 162.23 422.741 162.295 422.59C162.36 422.44 162.375 422.272 162.337 422.113C162.298 421.954 162.21 421.811 162.083 421.707Z" fill="#291B30"/>
<path d="M161.505 427.479C158.418 425.683 154.795 425.032 151.274 425.639C150.081 425.639 150.044 427.623 151.274 427.515C152.975 427.352 154.69 427.425 156.371 427.731C157.926 428.02 159.336 428.669 160.891 428.994C161.082 429.035 161.282 429.007 161.455 428.916C161.627 428.824 161.762 428.675 161.836 428.494C161.909 428.313 161.916 428.112 161.856 427.926C161.795 427.741 161.671 427.582 161.505 427.479Z" fill="#291B30"/>
<path d="M209.374 421.707C206.626 420.769 200.66 420.408 198.527 422.933C198.238 423.258 198.527 423.943 198.925 423.907C200.624 423.691 202.107 423.005 203.878 422.933C205.65 422.861 207.494 423.33 209.157 423.222C209.256 423.236 209.358 423.231 209.456 423.206C209.553 423.181 209.645 423.137 209.725 423.076C209.806 423.016 209.874 422.941 209.925 422.854C209.976 422.768 210.01 422.672 210.024 422.572C210.039 422.473 210.033 422.372 210.008 422.274C209.983 422.177 209.939 422.085 209.879 422.005C209.818 421.925 209.743 421.857 209.656 421.806C209.569 421.754 209.473 421.721 209.374 421.707Z" fill="#291B30"/>
<path d="M210.711 427.804C207.71 426.469 200.226 425.495 198.707 429.536C198.49 430.077 199.177 430.51 199.611 430.257C201.173 429.388 202.914 428.887 204.7 428.793C206.486 428.7 208.27 429.015 209.915 429.716C211 430.149 211.831 428.273 210.711 427.804Z" fill="#291B30"/>
<path d="M73.8314 82.9772C73.8314 82.7607 73.3976 82.7607 73.3614 82.9772C71.5537 95.2795 72.6022 108.231 72.6022 120.822C72.6022 134.135 72.1683 147.555 72.9637 160.832C72.9979 160.974 73.0789 161.1 73.1937 161.19C73.3085 161.28 73.4503 161.329 73.5964 161.329C73.7425 161.329 73.8844 161.28 73.9992 161.19C74.1139 161.1 74.1949 160.974 74.2291 160.832C74.9884 147.555 74.5545 134.135 74.5545 120.822C74.5545 108.52 75.603 95.3877 73.8314 82.9772Z" fill="#F7F8F8"/>
<path d="M89.6304 87.1624C89.5918 86.9853 89.4937 86.8266 89.3523 86.7128C89.2109 86.599 89.0347 86.537 88.853 86.537C88.6714 86.537 88.4952 86.599 88.3538 86.7128C88.2124 86.8266 88.1142 86.9853 88.0757 87.1624C88.0757 98.9958 87.3165 111.046 88.0757 122.843C88.0757 123.044 88.1557 123.236 88.2981 123.379C88.4405 123.521 88.6336 123.6 88.835 123.6C89.0363 123.6 89.2294 123.521 89.3718 123.379C89.5142 123.236 89.5942 123.044 89.5942 122.843C90.4258 111.046 89.7027 98.9958 89.6304 87.1624Z" fill="#F7F8F8"/>
<path d="M251.276 211.052C251.247 210.945 251.183 210.851 251.095 210.784C251.007 210.717 250.899 210.68 250.788 210.68C250.677 210.68 250.57 210.717 250.481 210.784C250.393 210.851 250.329 210.945 250.3 211.052C249.282 226.543 249.076 242.078 249.686 257.591C249.686 273.104 249.686 288.582 250.264 304.095C250.295 304.21 250.363 304.312 250.457 304.385C250.552 304.458 250.669 304.497 250.788 304.497C250.908 304.497 251.024 304.458 251.119 304.385C251.214 304.312 251.282 304.21 251.312 304.095C251.819 288.582 251.819 273.104 251.891 257.591C252.482 242.078 252.277 226.544 251.276 211.052Z" fill="#F7F8F8"/>
<path d="M279.151 120.318C279.038 109.995 278.362 99.6853 277.126 89.4355C277.126 88.8222 276.15 89.0026 276.114 89.4355C275.835 100.521 276.161 111.613 277.09 122.663C277.56 132.945 277.452 143.479 278.826 153.653C278.826 154.591 280.416 154.302 280.453 153.437C280.959 142.433 279.802 131.213 279.151 120.318Z" fill="#F7F8F8"/>
<path d="M286.382 126.054C286.357 125.973 286.306 125.903 286.238 125.853C286.17 125.803 286.087 125.776 286.002 125.776C285.918 125.776 285.835 125.803 285.767 125.853C285.699 125.903 285.648 125.973 285.623 126.054C284.665 140.876 284.592 155.743 285.406 170.573C285.383 170.664 285.382 170.758 285.401 170.849C285.421 170.94 285.461 171.026 285.518 171.099C285.576 171.172 285.649 171.232 285.733 171.272C285.817 171.313 285.909 171.334 286.002 171.334C286.096 171.334 286.188 171.313 286.272 171.272C286.356 171.232 286.429 171.172 286.487 171.099C286.544 171.026 286.584 170.94 286.604 170.849C286.623 170.758 286.621 170.664 286.599 170.573C287.412 155.743 287.34 140.876 286.382 126.054Z" fill="#F7F8F8"/>
<path d="M179.764 267.837C179.819 265.028 180.183 262.234 180.848 259.504C180.487 262.318 180.125 265.132 179.764 267.837Z" fill="#291B30"/>
<path d="M219.099 230.281C214.219 201.022 173.907 199.651 173.907 199.651C171.412 187.601 187.681 183.994 187.681 183.994L197.19 175.804C201.002 175.747 204.81 176.11 208.542 176.886C210.897 180.636 212.757 184.674 214.074 188.9C216.935 202.524 218.616 216.369 219.099 230.281Z" fill="#291B30"/>
<path d="M214.653 192.039C182.114 207.3 146.755 193.302 146.755 193.302C149.322 186.086 147.406 149.287 147.225 142.288C147.225 142.288 147.225 142.036 147.225 141.928C147.239 141.663 147.239 141.398 147.225 141.134C154.058 125.332 154.817 94.8829 154.853 84.4205C157.927 83.9515 161.144 83.699 163.928 83.5547C165.013 95.2437 168.881 125.224 179.655 123.925C190.429 122.626 195.563 95.9292 197.443 84.2402C199.425 84.572 201.436 84.7049 203.445 84.637C204.059 84.637 204.674 84.637 205.289 84.637C204.349 100.619 213.242 134.207 213.496 135.145C213.496 135.398 213.496 135.686 213.496 135.939C213.496 136.805 213.242 137.707 213.134 138.681C213.134 138.681 213.134 139.078 213.134 139.294C210.856 159.642 214.653 192.039 214.653 192.039Z" fill="#AB8DA8"/>
</g>
<defs>
<clipPath id="clip0_23_6576">
<rect width="370.472" height="486.538" fill="white" transform="translate(0.763672)"/>
</clipPath>
</defs>
</svg>
