<svg width="44" height="36" viewBox="0 0 44 36" fill="none" xmlns="http://www.w3.org/2000/svg">
<path d="M26.7177 19.2651C26.7634 19.5002 26.8395 19.6923 26.9405 19.8496C27.0364 20.5309 27.4679 20.8719 28.2344 20.8719H42.6659C43.5119 20.8719 43.9501 20.4258 43.9501 19.5354V18.7403C43.9501 17.8495 43.5119 17.4034 42.6659 17.4034H29.8386L26.7129 1.09172C26.57 0.363907 26.1872 0 25.5662 0C25.4423 0 25.3082 0.0145035 25.1658 0.0435106L24.3985 0.199094C23.8051 0.319078 23.4628 0.609588 23.3608 1.06227C23.3128 1.18789 23.2765 1.31765 23.2523 1.44991L19.1179 24.7611L17.9237 18.5773C17.7822 17.8574 17.4025 17.4992 16.7942 17.4913C16.6329 17.4337 16.4457 17.4051 16.2317 17.4051H1.31543C0.438183 17.4047 0 17.8503 0 18.7417V19.5367C0 20.4271 0.438183 20.8732 1.31543 20.8732H14.8872L17.3783 33.7743C17.4042 33.904 17.4412 34.0187 17.482 34.1238C17.4711 34.7812 17.8358 35.1882 18.5852 35.3227L19.3561 35.4612C19.4866 35.4849 19.6088 35.4963 19.7226 35.4963C20.3647 35.4963 20.7506 35.1276 20.8754 34.409L25.0779 10.7115L26.7177 19.2651Z" fill="#4E46B4"/>
</svg>
