<svg width="399" height="399" viewBox="0 0 399 399" fill="none" xmlns="http://www.w3.org/2000/svg">
<circle cx="199.5" cy="199.5" r="199.5" fill="url(#paint0_linear_362_3555)"/>
<path d="M176.708 69.791C176.708 69.791 179.175 53 198.075 53C216.975 53 226.142 74.4791 230.408 87.0806C234.675 99.6822 245.675 111.552 260.008 118.568C274.342 125.583 285.175 133.131 283.342 149.024C283.342 149.024 314.008 172.964 255.575 177.386C197.142 181.808 168.442 145.134 171.975 126.248C175.508 107.363 152.708 81.7607 176.708 69.791Z" fill="#3B2645"/>
<path d="M212.075 110.089C212.075 110.089 209.408 135.891 220.742 138.152C220.742 138.152 225.442 184.468 199.008 184.468C172.575 184.468 175.275 139.548 175.275 139.548C175.275 139.548 186.542 136.589 185.642 111.685C184.742 86.7814 212.442 92.7663 212.075 110.089Z" fill="#FFEDE5"/>
<path d="M204.209 112.384C206.442 103.905 194.942 102.176 187.209 101.943C186.109 104.437 185.476 107.662 185.609 111.685C185.776 115.21 185.609 118.768 185.176 122.292C189.576 122.624 201.509 122.591 204.209 112.384Z" fill="#E0855C"/>
<path d="M182.426 104.471C184.811 103.654 185.502 99.3866 183.97 94.9409C182.438 90.4952 179.262 87.5543 176.877 88.3721C174.492 89.19 173.801 93.457 175.333 97.9027C176.865 102.348 180.041 105.289 182.426 104.471Z" fill="#E0855C"/>
<path d="M222.124 97.8623C223.657 93.4166 222.965 89.1496 220.58 88.3317C218.195 87.5139 215.019 90.4548 213.487 94.9005C211.955 99.3462 212.646 103.613 215.032 104.431C217.417 105.249 220.592 102.308 222.124 97.8623Z" fill="#E0855C"/>
<path d="M178.142 73.9469C178.142 73.9469 176.308 118.468 197.442 118.568C213.875 118.634 218.575 98.6512 218.842 76.1414C219.108 53.6315 178.408 56.6572 178.142 73.9469Z" fill="#FFEDE5"/>
<path d="M199.109 105.534C195.575 105.534 192.475 103.406 192.442 103.373C192.275 103.273 192.242 103.074 192.375 102.907C192.475 102.741 192.675 102.708 192.842 102.841C192.909 102.874 198.909 106.964 203.342 103.473C203.475 103.373 203.709 103.373 203.809 103.539C203.909 103.705 203.909 103.905 203.742 104.005C202.242 105.135 200.642 105.534 199.109 105.534Z" fill="#472938"/>
<path d="M185.375 87.1138C185.375 87.1138 188.142 88.876 192.808 87.4463C192.808 87.413 188.842 91.4694 185.375 87.1138Z" fill="#472938"/>
<path d="M211.908 87.4795C211.908 87.4795 209.141 89.2417 204.475 87.812C204.475 87.812 208.441 91.8685 211.908 87.4795Z" fill="#472938"/>
<path d="M183.775 81.6942C183.775 81.6942 187.275 77.8373 192.375 79.0343C194.975 79.6328 193.975 76.4408 189.275 76.6403C184.575 76.8398 183.775 81.6942 183.775 81.6942Z" fill="#472938"/>
<path d="M213.775 81.6942C213.775 81.6942 210.275 77.8373 205.175 79.0343C202.575 79.6328 203.575 76.4408 208.275 76.6403C212.975 76.8398 213.775 81.6942 213.775 81.6942Z" fill="#472938"/>
<path d="M198.308 98.0864C197.308 98.0864 195.174 97.3549 194.441 96.6234C194.174 96.3574 194.074 96.0914 194.108 95.8254C194.174 95.4264 194.474 94.1629 194.908 92.567C195.474 90.2727 196.208 87.4465 196.441 86.0501C196.674 84.7201 196.441 83.3236 195.808 82.1266C195.708 81.9604 195.774 81.7609 195.941 81.6611C196.108 81.5614 196.308 81.6279 196.408 81.7941C197.108 83.1241 197.374 84.6536 197.108 86.1498C196.874 87.5795 196.141 90.439 195.574 92.7332C195.174 94.2627 194.841 95.5927 194.808 95.9252C194.808 95.9584 194.841 96.0249 194.941 96.1579C195.641 96.8561 197.841 97.5211 198.474 97.4214C199.308 97.2884 201.041 96.4904 201.641 95.7922C201.774 95.6592 201.974 95.6592 202.108 95.7589C202.241 95.8919 202.241 96.0914 202.141 96.2244C201.408 97.0224 199.541 97.9201 198.574 98.0531C198.441 98.0864 198.374 98.0864 198.308 98.0864Z" fill="#472938"/>
<path d="M178.442 85.3515C178.442 85.3515 179.776 74.745 183.076 70.8548C183.076 70.8548 188.609 68.3943 197.409 73.6145C206.209 78.8346 212.376 83.2236 220.542 81.9268C220.542 81.9268 221.309 56.624 200.209 57.9873C179.109 59.3505 174.776 70.356 178.442 85.3515Z" fill="#3B2645"/>
<path d="M317.875 241.69C317.542 241.158 316.542 242.056 316.542 242.056C316.542 242.056 315.508 240.892 312.708 241.723C309.908 242.555 301.608 249.67 301.608 249.67C297.875 249.603 291.775 253.261 291.775 253.261C291.775 253.261 287.175 251.366 283.008 245.115C278.842 238.864 274.308 235.805 274.308 235.805C274.308 235.805 264.542 196.637 257.942 172.199C251.242 175.025 242.542 186.163 236.342 195.141C236.475 199.364 236.608 202.057 236.608 202.057C236.608 202.057 258.342 259.578 261.142 261.307C263.942 263.036 295.908 266.893 296.242 266.66C296.575 266.428 299.508 267.192 300.708 266.66C301.908 266.128 303.375 266.993 304.842 265.995C306.308 264.998 308.842 266.527 309.875 265.563C310.908 264.599 312.708 264.998 313.908 264.433C315.108 263.867 321.808 254.425 321.942 252.729C322.075 251.033 318.208 242.222 317.875 241.69Z" fill="#FFEDE5"/>
<path d="M241.941 183.67C241.941 183.67 253.308 203.021 244.308 222.073L236.574 201.99L241.941 183.67Z" fill="#E0855C"/>
<path d="M257.908 172.132C255.541 163.355 253.575 156.472 252.608 153.978C248.941 144.402 242.175 143.97 242.175 143.97C235.508 144.07 235.841 179.713 236.308 195.075C242.508 186.097 251.208 174.992 257.908 172.132Z" fill="#AB8DA8"/>
<path d="M266.908 237.833C266.775 237.833 266.641 237.734 266.575 237.601C266.541 237.434 266.641 237.235 266.808 237.202L273.341 235.473C273.508 235.439 273.708 235.539 273.741 235.705C273.775 235.872 273.675 236.071 273.508 236.104L266.975 237.833C266.975 237.833 266.941 237.833 266.908 237.833Z" fill="#472938"/>
<path d="M299.242 260.476C299.075 260.476 298.908 260.343 298.908 260.144C298.742 256.087 293.942 255.921 293.742 255.921C293.542 255.921 293.408 255.755 293.408 255.588C293.408 255.389 293.575 255.256 293.742 255.256C293.808 255.256 299.341 255.455 299.541 260.11C299.608 260.31 299.442 260.476 299.242 260.476C299.275 260.476 299.275 260.476 299.242 260.476Z" fill="#472938"/>
<path d="M297.775 263.502C297.741 263.502 297.675 263.502 297.641 263.468C297.475 263.402 297.408 263.202 297.475 263.036C297.875 262.172 301.475 254.391 302.975 253.394C304.208 252.563 305.708 252.829 306.308 253.361C306.708 253.693 306.575 254.026 306.541 254.125C306.375 254.491 304.441 259.279 303.475 261.739C303.408 261.906 303.208 262.005 303.041 261.939C302.875 261.872 302.775 261.673 302.841 261.507C302.941 261.207 305.541 254.757 305.908 253.926C305.841 253.859 305.675 253.726 305.341 253.66C305.075 253.593 304.208 253.427 303.341 253.992C302.208 254.757 299.141 261.008 298.041 263.369C298.008 263.435 297.908 263.502 297.775 263.502Z" fill="#472938"/>
<path d="M308.309 261.008C308.109 261.008 307.975 260.875 307.975 260.675C307.975 260.609 307.975 260.609 308.909 257.317C309.675 254.624 310.909 250.235 311.042 249.537C310.842 249.337 309.909 248.938 309.275 249.138C308.775 249.304 307.242 251.565 306.109 253.56C306.009 253.726 305.809 253.76 305.642 253.693C305.475 253.593 305.442 253.394 305.509 253.228C306.109 252.197 308.109 248.805 309.042 248.473C309.842 248.207 310.875 248.573 311.342 248.905C311.575 249.071 311.709 249.271 311.709 249.437C311.709 249.637 311.242 251.332 309.542 257.45C309.109 259.013 308.675 260.509 308.642 260.675C308.642 260.875 308.475 261.008 308.309 261.008Z" fill="#472938"/>
<path d="M313.007 260.31C312.974 260.31 312.974 260.31 312.94 260.31C312.774 260.277 312.64 260.077 312.674 259.911C313.84 254.724 315.54 246.81 315.574 245.946C315.44 245.746 314.84 245.414 313.807 245.414C313.24 245.414 311.807 247.309 310.84 249.071C310.74 249.238 310.54 249.304 310.374 249.204C310.207 249.105 310.14 248.905 310.24 248.739C310.774 247.808 312.574 244.749 313.807 244.749C314.974 244.749 315.94 245.148 316.207 245.713C316.274 245.846 316.44 246.212 313.307 260.044C313.307 260.21 313.174 260.31 313.007 260.31Z" fill="#472938"/>
<path d="M315.508 245.746C315.375 245.746 315.242 245.647 315.175 245.514C314.642 243.818 316.208 241.923 316.275 241.856C316.408 241.723 316.608 241.69 316.742 241.823C316.875 241.956 316.908 242.155 316.775 242.288C316.775 242.322 315.375 243.984 315.808 245.347C315.875 245.514 315.775 245.713 315.575 245.78C315.575 245.746 315.542 245.746 315.508 245.746Z" fill="#472938"/>
<path d="M313.741 257.085C313.674 257.085 313.608 257.051 313.574 257.018C313.408 256.918 313.374 256.719 313.474 256.553L316.208 252.43L315.408 247.442C315.374 247.276 315.508 247.076 315.674 247.076C315.841 247.043 316.041 247.176 316.041 247.342L316.908 252.596L314.041 256.951C313.941 257.018 313.841 257.085 313.741 257.085Z" fill="#472938"/>
<path d="M82.575 247.243C82.875 246.711 83.9083 247.542 83.9083 247.542C83.9083 247.542 84.9083 246.345 87.7417 247.077C90.575 247.808 99.1417 254.558 99.1417 254.558C102.842 254.359 109.142 257.75 109.142 257.75C109.142 257.75 113.675 255.655 117.608 249.238C121.542 242.821 125.942 239.563 125.942 239.563C125.942 239.563 134.108 200.062 139.742 175.325C146.542 177.885 155.675 188.658 162.242 197.369C162.275 201.592 162.275 204.285 162.275 204.285C162.275 204.285 142.875 262.604 140.142 264.466C137.408 266.328 105.608 271.415 105.308 271.216C105.008 271.016 102.075 271.881 100.842 271.382C99.6083 270.883 98.2083 271.848 96.675 270.883C95.1417 269.919 92.7083 271.548 91.6083 270.651C90.5083 269.753 88.775 270.185 87.5083 269.687C86.2417 269.188 79.2083 260.011 79.0083 258.315C78.8083 256.62 82.275 247.775 82.575 247.243Z" fill="#FFEDE5"/>
<path d="M156.141 186.264C156.141 186.264 145.574 206.08 155.307 224.733L162.207 204.351L156.141 186.264Z" fill="#E0855C"/>
<path d="M139.709 175.358C141.709 166.514 143.409 159.565 144.276 157.004C147.542 147.296 154.309 146.564 154.309 146.564C160.976 146.398 162.042 182.041 162.209 197.402C155.642 188.724 146.509 177.951 139.709 175.358Z" fill="#AB8DA8"/>
<path d="M133.341 241.358C133.307 241.358 133.307 241.358 133.274 241.358L126.674 239.895C126.507 239.862 126.374 239.662 126.407 239.496C126.441 239.33 126.641 239.197 126.807 239.23L133.407 240.693C133.574 240.726 133.707 240.926 133.674 241.092C133.641 241.258 133.474 241.358 133.341 241.358Z" fill="#472938"/>
<path d="M101.908 265.264C101.708 265.264 101.574 265.098 101.574 264.932C101.608 260.244 107.108 259.845 107.174 259.845C107.341 259.845 107.508 259.978 107.541 260.144C107.541 260.343 107.408 260.476 107.241 260.51C107.041 260.51 102.274 260.875 102.274 264.932C102.241 265.131 102.108 265.264 101.908 265.264Z" fill="#472938"/>
<path d="M103.541 268.224C103.407 268.224 103.307 268.157 103.241 268.057C102.074 265.763 98.7407 259.612 97.574 258.88C96.674 258.348 95.8074 258.548 95.5407 258.614C95.2407 258.714 95.074 258.847 95.0074 258.914C95.4074 259.745 98.2407 266.096 98.374 266.395C98.4407 266.561 98.374 266.761 98.2074 266.827C98.0407 266.894 97.8407 266.827 97.774 266.661C96.674 264.234 94.574 259.512 94.4074 259.146C94.274 258.914 94.374 258.614 94.6074 258.382C95.174 257.85 96.674 257.517 97.9407 258.282C99.5074 259.213 103.407 266.86 103.841 267.725C103.907 267.891 103.874 268.091 103.707 268.157C103.641 268.224 103.574 268.224 103.541 268.224Z" fill="#472938"/>
<path d="M92.8743 266.129C92.7077 266.129 92.5743 266.029 92.541 265.863C92.5077 265.697 92.0743 264.367 91.5743 262.804C89.5743 256.653 89.041 254.924 89.041 254.725C89.041 254.525 89.141 254.359 89.3743 254.193C89.841 253.827 90.841 253.428 91.6743 253.661C92.641 253.927 94.7743 257.251 95.4077 258.249C95.5077 258.415 95.441 258.615 95.3077 258.714C95.141 258.814 94.941 258.748 94.841 258.615C93.6077 256.653 91.9743 254.459 91.5077 254.326C90.841 254.126 89.941 254.591 89.741 254.791C89.9077 255.389 91.341 259.911 92.241 262.638C93.241 265.73 93.241 265.73 93.241 265.797C93.241 265.963 93.0743 266.129 92.8743 266.129C92.9077 266.129 92.9077 266.129 92.8743 266.129Z" fill="#472938"/>
<path d="M88.1743 265.663C88.041 265.663 87.9077 265.563 87.841 265.43C84.1743 251.698 84.341 251.333 84.3743 251.2C84.6077 250.601 85.541 250.169 86.741 250.136H86.7743C88.0077 250.136 89.9077 253.095 90.4743 253.993C90.5743 254.159 90.5077 254.358 90.3743 254.458C90.2077 254.558 90.0077 254.491 89.9077 254.358C88.8743 252.663 87.3743 250.801 86.8077 250.801C85.8077 250.834 85.2077 251.2 85.0743 251.399C85.141 252.264 87.1743 260.111 88.541 265.231C88.5743 265.397 88.4743 265.597 88.3077 265.63C88.2077 265.63 88.1743 265.663 88.1743 265.663Z" fill="#472938"/>
<path d="M85.1081 251.233C85.0747 251.233 85.0414 251.233 85.0081 251.233C84.8414 251.2 84.7081 251 84.7747 250.834C85.1414 249.438 83.7081 247.842 83.6747 247.808C83.5414 247.675 83.5747 247.476 83.7081 247.343C83.8414 247.21 84.0414 247.243 84.1747 247.376C84.2414 247.443 85.8747 249.271 85.4081 251C85.3747 251.133 85.2414 251.233 85.1081 251.233Z" fill="#472938"/>
<path d="M87.3078 262.438C87.2078 262.438 87.1078 262.405 87.0411 262.305L84.0078 258.082L84.6411 252.796C84.6745 252.63 84.8411 252.497 85.0078 252.497C85.1745 252.53 85.3078 252.696 85.3078 252.862L84.7078 257.883L87.6078 261.906C87.7078 262.039 87.6745 262.272 87.5411 262.372C87.4411 262.438 87.3745 262.438 87.3078 262.438Z" fill="#472938"/>
<path d="M220.709 138.152L242.176 143.971C242.176 143.971 239.576 178.583 244.009 185.732C248.442 192.88 245.976 209.139 240.609 217.219C240.609 217.219 232.009 244.816 234.342 251.3C236.676 257.783 244.509 272.114 244.509 272.114C244.509 272.114 209.542 289.802 158.942 274.075C158.942 274.075 168.976 252.995 167.409 244.916C165.842 236.836 155.009 214.326 155.142 203.686C155.276 193.047 158.676 164.652 153.709 146.697L175.176 139.548C175.176 139.548 175.542 181.709 199.976 181.709C224.409 181.709 220.709 138.152 220.709 138.152Z" fill="#AB8DA8"/>
<path d="M240.643 217.219C240.643 217.219 237.976 222.539 221.043 224.766C221.043 224.766 237.343 225.997 235.71 235.772L240.643 217.219Z" fill="#543753"/>
<path d="M157.477 215.723C157.477 215.723 161.477 223.204 179.577 224.899C179.577 224.899 159.743 221.907 163.443 232.746L157.477 215.723Z" fill="#543753"/>
<path d="M155.242 205.548C155.075 205.548 154.908 205.415 154.908 205.249C154.875 204.684 154.842 204.185 154.875 203.686C154.908 201.293 155.108 198.034 155.308 194.244C155.608 189.057 155.975 182.606 156.075 175.99C156.075 175.79 156.208 175.657 156.408 175.657C156.608 175.657 156.742 175.823 156.742 175.99C156.642 182.606 156.275 189.09 155.975 194.277C155.742 198.067 155.575 201.326 155.542 203.72C155.542 204.185 155.542 204.684 155.575 205.216C155.575 205.349 155.442 205.515 155.242 205.548Z" fill="#472938"/>
<path d="M244.009 186.064C243.909 186.064 243.776 185.998 243.709 185.898C242.243 183.537 241.376 178.117 241.143 169.805C241.143 169.606 241.276 169.473 241.476 169.473C241.643 169.473 241.809 169.606 241.809 169.805C242.043 178.018 242.876 183.338 244.276 185.565C244.376 185.732 244.309 185.931 244.176 186.031C244.143 186.031 244.076 186.064 244.009 186.064Z" fill="#472938"/>
<path d="M160.11 271.615C160.11 271.615 178.943 278.764 200.977 277.999C223.01 277.234 267.11 261.341 287.71 264.599C308.31 267.858 306.977 276.602 306.277 280.626C305.577 284.649 262.81 344.996 225.243 344.996H167.677C167.677 344.996 96.9433 300.542 94.6433 287.708C92.3433 274.873 94.0099 267.193 113.743 266.827C133.477 266.461 154.81 269.886 160.11 271.615Z" fill="#3B2645"/>
<path d="M200.242 291.199C200.242 291.199 228.376 279.529 251.876 275.505C251.876 275.505 267.009 298.913 262.576 318.696C262.542 318.696 208.742 306.926 200.242 291.199Z" fill="#FFEDE5"/>
<path d="M200.242 291.199C200.242 291.199 268.309 300.076 262.542 318.696C256.776 337.316 200.242 291.199 200.242 291.199Z" fill="#E0855C"/>
<path d="M230.843 324.88C230.843 324.88 161.076 330.865 145.776 333.991C130.476 337.116 114.976 335.72 105.509 339.012C96.0426 342.303 90.8093 344.83 89.6759 344.963C88.5426 345.096 85.9426 330.433 90.7093 325.246C90.7093 325.246 89.2426 319.96 95.9093 315.87C102.576 311.78 113.643 317.167 117.743 315.87C121.843 314.573 124.776 313.376 129.143 314.307C133.509 315.238 144.176 317.865 144.176 317.865C144.176 317.865 199.109 283.053 230.843 324.88Z" fill="#FFEDE5"/>
<path d="M144.209 317.865L185.642 329.103L230.842 324.881C230.842 324.881 210.242 303.734 181.809 305.696C153.376 307.658 144.209 317.865 144.209 317.865Z" fill="#E0855C"/>
<path d="M158.642 276.07C158.642 276.07 180.042 280.393 210.976 296.552C241.909 312.711 267.509 306.095 276.542 309.22C285.576 312.345 302.709 309.918 305.509 312.345C308.309 314.773 310.142 319.029 308.476 320.857C308.476 320.857 315.942 337.947 315.242 339.078C314.542 340.208 311.942 340.109 310.709 339.843C309.476 339.577 298.609 334.19 286.109 331.963C273.609 329.735 239.142 324.947 211.676 323.55C184.209 322.154 144.209 319.394 144.209 319.394C144.209 319.394 145.142 285.779 158.642 276.07Z" fill="#FFEDE5"/>
<path d="M306.208 321.556C305.142 321.556 303.708 321.356 301.875 320.724C301.709 320.658 301.609 320.458 301.675 320.292C301.742 320.126 301.942 320.026 302.109 320.093C306.242 321.556 308.242 320.558 308.275 320.558C308.442 320.458 308.642 320.525 308.708 320.691C308.808 320.857 308.742 321.057 308.575 321.123C308.542 321.123 307.775 321.556 306.208 321.556Z" fill="#472938"/>
<path d="M94.0763 326.277C91.743 326.277 90.6096 325.546 90.543 325.512C90.3763 325.413 90.343 325.213 90.443 325.047C90.543 324.881 90.743 324.847 90.9096 324.947C90.9096 324.947 92.1096 325.679 94.443 325.579C96.8763 325.512 99.5096 324.316 99.543 324.316C99.7096 324.249 99.9096 324.316 99.9763 324.482C100.043 324.648 99.9763 324.847 99.8096 324.914C99.7096 324.98 97.0096 326.144 94.4763 326.244C94.343 326.277 94.2096 326.277 94.0763 326.277Z" fill="#472938"/>
<defs>
<linearGradient id="paint0_linear_362_3555" x1="399" y1="399" x2="-132.785" y2="357.85" gradientUnits="userSpaceOnUse">
<stop stop-color="#92A3FD"/>
<stop offset="1" stop-color="#9DCEFF"/>
</linearGradient>
</defs>
</svg>
