<svg width="300" height="325" viewBox="0 0 300 325" fill="none" xmlns="http://www.w3.org/2000/svg">
<g clip-path="url(#clip0_38_4911)">
<path d="M300 189.607C300 189.607 242.347 320.002 152.88 324.486C63.4133 328.97 0 280.496 0 280.496V-29.5137H300V189.607Z" fill="#4E46B4" fill-opacity="0.12"/>
<path d="M113.04 253.216C96.8798 293.869 101.493 321.336 101.493 321.336C116.827 324.139 132.4 325.287 147.973 324.78C167.706 324.139 185.946 318 202.48 308.684C203.04 286.102 195.333 265.949 189.84 254.498C154.507 271.608 123.68 258.822 113.04 253.216Z" fill="#AB8DA8"/>
<path d="M117.787 242.272C116.054 246.009 114.454 249.666 113.067 253.216C123.68 258.822 154.534 271.634 189.84 254.497C186.827 248.225 184.454 244.568 184.454 244.568C184.454 244.568 139.52 195.667 117.787 242.272Z" fill="#FEF9EF"/>
<path d="M152.88 324.486V310.419L165.093 301.931L157.013 313.222L157.84 324.086L152.88 324.486Z" fill="#543753"/>
<path d="M94.8267 154.186C94.8267 154.186 93.6 154.64 93.3867 167.079C93.1733 179.517 92.24 204.262 92.24 204.262C92.24 204.262 80.96 193.771 80.1333 188.486C79.3067 183.201 79.6533 178.45 79.0933 175.54C78.5333 172.631 78.4267 164.676 78.6667 163.182C78.9067 161.687 75.12 161.446 74.08 163.662C73.04 165.877 72.6933 173.245 72.16 173.512C71.6267 173.779 65.52 174.339 64.9333 175.674C64.3467 177.008 65.3867 179.437 64.48 181.466C63.5733 183.495 64.56 184.936 64.48 186.484C64.4 188.032 64.0267 188.62 64.72 190.969C65.4133 193.318 65.5467 195.293 66.6667 195.667L67.7867 196.04L71.7067 197.375C71.7067 197.375 88.5067 235.252 96.8267 236.079C105.147 236.907 109.493 230.287 110.533 224.949C111.573 219.61 117.147 187.632 117.147 187.632L94.8267 154.186Z" fill="#FFEDE5"/>
<path d="M104.267 180.505L113.493 208.559L117.147 187.605L104.267 180.505Z" fill="#E0855C"/>
<path d="M92.2397 204.235C92.2397 204.235 100.08 210.828 102.666 216.247C102.666 216.247 98.4798 205.142 92.3997 199.991L92.2397 204.235Z" fill="#E0855C"/>
<path d="M69.0933 195.507C69.0933 195.507 77.2799 195.293 77.9466 194.786C78.6132 194.279 78.6399 191.876 78.2933 191.583C78.2933 191.583 78.9599 188.086 78.3466 187.179C78.3466 187.179 78.5866 184.589 78.3199 183.068C78.3199 183.068 79.6799 190.862 79.5199 192.09C79.3599 193.318 79.9999 195.4 76.3199 196.014C72.6399 196.628 69.0933 195.507 69.0933 195.507Z" fill="#E0855C"/>
<path d="M78.3467 187.232C78.32 187.232 78.32 187.232 78.2934 187.232C78.16 187.205 78.0534 187.072 78.08 186.938C78.4267 184.776 77.8667 180.585 77.8667 180.559V180.505V180.452C78.1067 179.518 78.6134 176.875 77.92 176.074C77.3067 175.354 71.3867 175.167 67.7867 175.22C67.6534 175.22 67.52 175.113 67.52 174.953C67.52 174.793 67.6267 174.686 67.7867 174.686C69.3867 174.66 77.36 174.606 78.32 175.727C79.28 176.848 78.5334 179.971 78.4 180.532C78.4534 181.039 78.9334 184.883 78.5867 187.018C78.5867 187.152 78.4534 187.232 78.3467 187.232Z" fill="#472938"/>
<path d="M78.1331 180.772C78.1065 180.772 78.1331 180.772 78.1331 180.772L69.5465 180.372C69.3865 180.372 69.2798 180.238 69.2798 180.105C69.2798 179.945 69.3865 179.838 69.5465 179.838L78.1331 180.238C78.2931 180.238 78.3998 180.372 78.3998 180.505C78.3998 180.665 78.2665 180.772 78.1331 180.772Z" fill="#472938"/>
<path d="M78.2664 191.85H69.8131C69.6531 191.85 69.5464 191.743 69.5464 191.583C69.5464 191.422 69.6531 191.316 69.8131 191.316H78.2664C78.4264 191.316 78.5331 191.422 78.5331 191.583C78.5331 191.743 78.4264 191.85 78.2664 191.85Z" fill="#472938"/>
<path d="M78.4265 186.03H68.7198C68.5598 186.03 68.4531 185.924 68.4531 185.764C68.4531 185.603 68.5598 185.497 68.7198 185.497H78.4265C78.5865 185.497 78.6931 185.603 78.6931 185.764C78.6931 185.924 78.5865 186.03 78.4265 186.03Z" fill="#472938"/>
<path d="M223.173 141.187L239.333 140.573C240.026 140.546 240.613 141.08 240.64 141.774L241.893 175.14C241.92 175.834 241.386 176.421 240.693 176.448L224.533 177.062C223.84 177.088 223.253 176.555 223.226 175.861L221.973 142.495C221.946 141.774 222.48 141.213 223.173 141.187Z" fill="#3B2645"/>
<path d="M224.48 175.967C224.373 175.967 224.293 175.887 224.293 175.781L223.04 142.415C223.04 142.361 223.067 142.308 223.093 142.281C223.12 142.254 223.173 142.228 223.227 142.228L239.387 141.614C239.493 141.614 239.573 141.694 239.573 141.801L240.827 175.167C240.827 175.273 240.747 175.353 240.64 175.353L224.48 175.967Z" fill="#FEF9EF"/>
<path d="M173.067 137.049C173.067 137.049 190.027 138.758 193.174 152.531C196.32 166.305 202.134 199.03 202.134 199.03C202.134 199.03 214.507 179.197 215.494 176.047C216.48 172.898 219.68 162.247 219.574 158.617C219.467 154.987 223.014 157.576 223.014 161.9L223.547 176.208C223.574 176.688 223.974 177.062 224.454 177.035H224.48L240.854 175.807C241.414 175.781 241.814 175.3 241.787 174.74V174.553C241.787 174.553 240.614 172.124 240.96 171.003C241.307 169.881 244.107 169.775 244.427 170.042C244.747 170.309 246.48 173.645 246.427 174.553C246.374 175.46 244.347 178.29 243.014 178.717C241.68 179.144 228.4 182.347 225.68 186.458C222.96 190.568 211.067 226.577 201.414 229.353C191.76 232.129 182.347 205.943 180.134 198.283C177.92 190.622 173.067 137.049 173.067 137.049Z" fill="#FFEDE5"/>
<path d="M177.333 179.518C178.373 188.353 179.413 195.773 180.133 198.256C181.173 201.833 183.787 209.494 187.28 216.327L188.347 166.011L177.333 179.518Z" fill="#E0855C"/>
<path d="M241.333 160.539C241.333 160.539 247.12 163.502 247.013 164.756C246.907 166.011 245.813 168.253 244.693 168.146C243.573 168.039 241.467 166.918 240.88 165.61C240.293 164.302 240 160.112 241.333 160.539Z" fill="#FFEDE5"/>
<path d="M241.627 164.89C241.627 164.89 247.413 167.853 247.307 169.107C247.2 170.362 246.107 172.604 244.987 172.497C243.867 172.39 241.76 171.269 241.173 169.961C240.587 168.653 240.293 164.463 241.627 164.89Z" fill="#FFEDE5"/>
<path d="M241.627 155.254C241.627 155.254 247.413 158.217 247.307 159.471C247.2 160.726 246.107 162.968 244.987 162.861C243.867 162.754 241.76 161.633 241.173 160.325C240.587 159.017 240.293 154.8 241.627 155.254Z" fill="#FFEDE5"/>
<path d="M196.907 209.627C196.854 209.627 196.827 209.627 196.774 209.6C196.64 209.547 196.587 209.36 196.667 209.253L201.894 198.923C201.947 198.79 202.134 198.736 202.24 198.816C202.374 198.87 202.427 199.057 202.347 199.163L197.12 209.493C197.094 209.574 197.014 209.627 196.907 209.627Z" fill="#472938"/>
<path d="M122 224.281C122.027 232.956 117.787 242.245 117.787 242.245C117.787 242.245 147.147 258.742 184.427 244.541C184.427 244.541 179.867 232.796 180.453 220.517C150.32 214.912 122 224.281 122 224.281Z" fill="#FFEDE5"/>
<path d="M94.8266 154.186C92.6399 157.469 101.067 173.805 109.12 190.328C116.453 173.912 112.16 153.972 109.68 145.404C104 147.593 97.0399 150.823 94.8266 154.186Z" fill="#FFEDE5"/>
<path d="M180.453 220.544C180.507 219.263 180.64 217.982 180.827 216.701C180.933 215.927 181.067 215.099 181.2 214.218C157.28 207.678 128.8 215.152 120.773 217.528C121.547 220.171 122 222.466 122 224.281C122 224.281 150.32 214.912 180.453 220.544Z" fill="#FEF9EF"/>
<path d="M109.12 191.209C109.013 191.209 108.933 191.155 108.88 191.049L102.933 178.236C102.88 178.103 102.933 177.942 103.066 177.889C103.2 177.836 103.36 177.889 103.413 178.023L109.36 190.835C109.413 190.969 109.36 191.129 109.226 191.182C109.2 191.209 109.146 191.209 109.12 191.209Z" fill="#472938"/>
<path d="M154.72 247.771C155.132 247.771 155.466 247.436 155.466 247.024C155.466 246.611 155.132 246.276 154.72 246.276C154.307 246.276 153.973 246.611 153.973 247.024C153.973 247.436 154.307 247.771 154.72 247.771Z" fill="#E0855C"/>
<path d="M187.067 167.586C187.067 167.399 187.067 167.212 187.067 167.052C187.067 166.972 187.067 166.865 187.067 166.785C187.067 166.572 187.067 166.385 187.04 166.171C187.04 166.118 187.04 166.064 187.04 165.984C187.04 165.717 187.013 165.477 187.013 165.237V165.077C187.013 164.89 186.987 164.676 186.987 164.49C186.987 164.409 186.987 164.329 186.96 164.249C186.96 164.089 186.933 163.929 186.933 163.796L186.907 163.529C186.907 163.395 186.88 163.235 186.853 163.102C186.853 163.021 186.827 162.941 186.827 162.835C186.8 162.674 186.8 162.541 186.773 162.381C186.773 162.301 186.747 162.247 186.747 162.167C186.72 161.954 186.693 161.74 186.64 161.527C184.56 148.874 173.04 137.023 173.04 137.023C173.04 137.023 177.52 154.827 178.96 156.909C184.213 164.543 187.147 169.134 186.773 175.22C186.8 174.9 186.827 174.606 186.853 174.286C186.853 174.206 186.853 174.126 186.853 174.046C186.88 173.805 186.88 173.565 186.907 173.352C186.907 173.272 186.907 173.165 186.933 173.085C186.933 172.871 186.96 172.658 186.96 172.417L186.987 172.15C186.987 171.91 187.013 171.697 187.013 171.483C187.013 171.403 187.013 171.35 187.013 171.27C187.04 170.682 187.067 170.095 187.067 169.508C187.067 169.428 187.067 169.374 187.067 169.294C187.067 169.081 187.067 168.867 187.067 168.654V168.387C187.067 168.2 187.067 168.013 187.067 167.826V167.586Z" fill="#FFEDE5"/>
<path d="M178.96 156.935C177.52 154.853 173.066 137.049 173.066 137.049H169.68L117.786 142.601C117.786 142.601 114.133 143.669 109.68 145.377C112.133 153.946 116.453 173.912 109.12 190.301C113.946 200.231 118.613 210.214 120.746 217.528C128.773 215.126 157.253 207.678 181.173 214.218C182.746 204.128 185.786 188.059 186.773 175.247C187.146 169.161 184.213 164.57 178.96 156.935Z" fill="#AB8DA8"/>
<path d="M126.48 203.434C125.2 203.434 123.866 203.274 122.453 202.927C122.32 202.9 122.213 202.74 122.266 202.607C122.293 202.473 122.453 202.367 122.586 202.42C127.653 203.701 131.76 202.233 136.08 200.712C140.186 199.244 144.426 197.749 149.866 198.363C160.853 199.591 178.746 196.628 178.933 196.601C179.093 196.574 179.226 196.681 179.253 196.815C179.28 196.948 179.173 197.108 179.04 197.135C178.853 197.162 160.88 200.151 149.84 198.923C144.533 198.336 140.346 199.804 136.293 201.246C133.04 202.34 129.946 203.434 126.48 203.434Z" fill="#472938"/>
<path d="M167.493 65.8863C167.493 65.8863 181.413 67.2743 177.226 85.7991C173.04 104.324 177.173 103.496 180.8 113.293C184.426 123.089 165.466 116.603 165.466 116.603C165.466 116.603 175.12 131.07 123.813 124.824C81.4931 119.672 109.733 97.5973 109.733 97.5973C109.733 97.5973 97.0131 99.279 112.24 85.8258C122.96 76.3499 128.666 41.5158 167.493 65.8863Z" fill="#3B2645"/>
<path d="M158.267 117.136C158.267 117.136 153.973 132.218 159.867 135.02C164.4 137.183 169.68 137.049 169.68 137.049C169.68 137.049 167.867 177.035 145.467 177.462C123.067 177.889 117.787 142.601 117.787 142.601C117.787 142.601 126.907 139.398 129.627 133.125C132.347 126.852 132.48 118.07 132.48 118.07L158.267 117.136Z" fill="#FFEDE5"/>
<path d="M169.028 105.734C171.31 101.777 171.259 97.4689 168.912 96.1126C166.565 94.7563 162.812 96.8652 160.529 100.823C158.247 104.78 158.298 109.088 160.645 110.445C162.992 111.801 166.745 109.692 169.028 105.734Z" fill="#E0855C"/>
<path d="M163.44 106.032C163.36 106.032 163.307 106.006 163.253 105.952C163.147 105.845 163.147 105.685 163.253 105.578L167.28 101.788C167.387 101.681 167.547 101.681 167.653 101.788C167.76 101.895 167.76 102.055 167.653 102.162L163.627 105.952C163.573 106.032 163.52 106.032 163.44 106.032Z" fill="#472938"/>
<path d="M127.07 107.437C129.707 106.813 130.993 102.701 129.942 98.2543C128.891 93.8072 125.901 90.7083 123.264 91.3328C120.627 91.9572 119.342 96.0685 120.393 100.516C121.444 104.963 124.433 108.062 127.07 107.437Z" fill="#FFEDE5"/>
<path d="M156.933 130.002C156.133 124.611 158.266 117.11 158.266 117.11L132.453 118.071C132.453 118.071 132.426 120.019 132.106 122.742C132.106 122.769 144.986 138.384 156.933 130.002Z" fill="#E0855C"/>
<path d="M126.374 101.975C126.294 101.975 126.214 101.921 126.16 101.841L123.6 97.9175C123.52 97.7841 123.547 97.6239 123.68 97.5438C123.814 97.4637 123.974 97.4904 124.054 97.6239L126.614 101.548C126.694 101.681 126.667 101.841 126.534 101.921C126.48 101.975 126.427 101.975 126.374 101.975Z" fill="#472938"/>
<path d="M128.08 73.814C128.08 73.814 118.906 123.382 140.453 128.534C162 133.686 169.68 87.454 169.12 77.8446C168.56 68.2352 131.28 65.3257 128.08 73.814Z" fill="#FFEDE5"/>
<path d="M156.747 96.4762C157.44 96.6096 157.893 97.2769 157.787 97.971L157.653 98.7451C157.52 99.4391 156.853 99.8928 156.16 99.7861C155.467 99.6526 155.013 98.9853 155.12 98.2913L155.253 97.5172C155.387 96.8232 156.053 96.3427 156.747 96.4762Z" fill="#472938"/>
<path d="M136.667 94.2339C137.387 94.2339 137.947 94.7944 137.947 95.5151V96.2892C137.947 96.9832 137.387 97.5705 136.667 97.5705C135.973 97.5705 135.387 97.0099 135.387 96.2892V95.5151C135.387 94.7944 135.947 94.2339 136.667 94.2339Z" fill="#472938"/>
<path d="M161.44 95.1415C161.44 95.1415 160.48 93.7001 157.706 93.2196C154.933 92.7392 154.053 92.8993 154.026 92.0185C154 91.1376 160.213 89.7763 161.44 95.1415Z" fill="#472938"/>
<path d="M132.64 91.4847C132.64 91.4847 134.027 90.4436 136.8 90.8974C139.573 91.3779 140.347 91.805 140.667 90.9775C140.987 90.15 135.573 86.8134 132.64 91.4847Z" fill="#472938"/>
<path d="M137.92 110.383L149.44 111.691C149.44 111.691 147.653 119.486 142.56 118.578C137.493 117.697 137.92 110.383 137.92 110.383Z" fill="white"/>
<path d="M145.546 108.461C144.746 108.461 143.866 108.248 143.066 107.874C142.933 107.821 142.88 107.66 142.933 107.527C142.986 107.394 143.146 107.34 143.28 107.394C144.453 107.954 145.76 108.088 146.64 107.741C147.013 107.607 147.253 107.394 147.36 107.153C147.706 106.326 147.573 103.763 147.413 100.8L147.36 99.7594C147.066 94.2874 150.346 93.2464 150.48 93.193C150.613 93.1396 150.773 93.2197 150.8 93.3798C150.853 93.5133 150.773 93.6735 150.613 93.7001C150.48 93.7268 147.6 94.6878 147.866 99.7327L147.92 100.774C148.08 103.923 148.24 106.433 147.813 107.367C147.653 107.741 147.306 108.061 146.8 108.248C146.48 108.408 146.026 108.461 145.546 108.461Z" fill="#472938"/>
<path d="M165.467 101.388C165.467 101.388 167.2 88.0146 161.44 80.7008C161.44 80.7008 156.56 89.9365 148.56 86.7333C148.56 86.7333 137.573 96.2627 126.373 93.4866C115.173 90.7106 119.147 64.4982 135.387 63.3772C151.627 62.2561 184.667 68.7958 165.467 101.388Z" fill="#3B2645"/>
</g>
<defs>
<clipPath id="clip0_38_4911">
<rect width="300" height="324.8" fill="white" transform="translate(0 0.0864258)"/>
</clipPath>
</defs>
</svg>
