<svg width="144" height="36" viewBox="0 0 144 36" fill="none" xmlns="http://www.w3.org/2000/svg">
<path d="M26.7177 19.2651C26.7634 19.5002 26.8395 19.6923 26.9405 19.8496C27.0364 20.5309 27.4679 20.8719 28.2344 20.8719H42.6659C43.5119 20.8719 43.9501 20.4258 43.9501 19.5354V18.7403C43.9501 17.8495 43.5119 17.4034 42.6659 17.4034H29.8386L26.7129 1.09172C26.57 0.363907 26.1872 0 25.5662 0C25.4423 0 25.3082 0.0145035 25.1658 0.0435106L24.3985 0.199094C23.8051 0.319078 23.4628 0.609588 23.3608 1.06227C23.3128 1.18789 23.2765 1.31765 23.2523 1.44991L19.1179 24.7611L17.9237 18.5773C17.7822 17.8574 17.4025 17.4992 16.7942 17.4913C16.6329 17.4337 16.4457 17.4051 16.2317 17.4051H1.31543C0.438183 17.4047 0 17.8503 0 18.7417V19.5367C0 20.4271 0.438183 20.8732 1.31543 20.8732H14.8872L17.3783 33.7743C17.4042 33.904 17.4412 34.0187 17.482 34.1238C17.4711 34.7812 17.8358 35.1882 18.5852 35.3227L19.3561 35.4612C19.4866 35.4849 19.6088 35.4963 19.7226 35.4963C20.3647 35.4963 20.7506 35.1276 20.8754 34.409L25.0779 10.7115L26.7177 19.2651Z" fill="white"/>
<path d="M53.9851 30.5905H51.6069V14.5508C51.6069 13.9518 51.4625 13.5237 51.1735 13.2665C50.8811 13.0128 50.5059 12.886 50.0479 12.886L50.5499 11.0363C52.1706 11.0363 53.1836 11.6793 53.5888 12.9653C53.7649 12.701 54.0521 12.3927 54.4502 12.0404C54.8448 11.6881 55.3381 11.3798 55.93 11.1156C56.5184 10.8513 57.1913 10.7192 57.9488 10.7192C59.0058 10.7192 59.9976 10.9958 60.9242 11.5489C61.8473 12.1056 62.5907 12.9071 63.1545 13.9536C63.7182 15.0035 64.0001 16.2772 64.0001 17.7746C64.0001 19.2367 63.7182 20.5174 63.1545 21.6167C62.5907 22.7195 61.8561 23.5739 60.9507 24.1799C60.0416 24.7894 59.0587 25.0942 58.0017 25.0942C57.1913 25.0942 56.4338 24.9303 55.7291 24.6027C55.0245 24.2785 54.4431 23.9051 53.9851 23.4823V30.5905ZM57.526 22.9802C58.7239 22.9802 59.6981 22.5081 60.4486 21.5639C61.1955 20.6231 61.569 19.3865 61.569 17.8538C61.569 16.7968 61.3805 15.8896 61.0035 15.1321C60.623 14.3746 60.1209 13.7932 59.4973 13.3881C58.8702 12.9829 58.1778 12.7803 57.4203 12.7803C56.6628 12.7803 55.9811 12.9688 55.3751 13.3458C54.7655 13.7263 54.3022 14.1368 53.9851 14.5772V21.3419C54.4431 21.8175 54.9716 22.2086 55.5706 22.5151C56.1696 22.8252 56.8214 22.9802 57.526 22.9802ZM71.7953 25.0942C71.0026 25.0942 70.2539 24.9268 69.5492 24.5921C68.8446 24.2574 68.272 23.7148 67.8316 22.9644C67.3912 22.2174 67.171 21.2186 67.171 19.9678V11.0363H69.5492V19.6507C69.5492 20.7253 69.7782 21.548 70.2363 22.1188C70.6943 22.6931 71.3637 22.9802 72.2445 22.9802C72.9668 22.9802 73.6662 22.834 74.3427 22.5416C75.0227 22.2527 75.6269 21.8616 76.1554 21.3683V11.0363H78.5336V21.2098C78.5336 21.9673 78.6957 22.4641 79.0198 22.7001C79.3475 22.9397 79.7051 23.0595 80.0927 23.0595L79.5906 24.9092C77.9523 24.9092 76.9393 24.2574 76.5518 22.9538C75.9352 23.588 75.2217 24.1024 74.4114 24.497C73.601 24.8951 72.729 25.0942 71.7953 25.0942ZM87.4387 25.0942C86.6284 25.0942 85.8955 24.9392 85.2402 24.6291C84.5919 24.3226 84.0775 23.8258 83.697 23.1388C83.3165 22.4517 83.1262 21.5621 83.1262 20.4699V5.22286H85.5044V20.232C85.5044 21.1833 85.7035 21.888 86.1016 22.346C86.4962 22.804 87.0459 23.0331 87.7505 23.0331C88.0887 23.0331 88.4199 22.9925 88.7441 22.9115C89.0717 22.834 89.3501 22.7424 89.5791 22.6367L90.1604 24.5657C89.8433 24.7066 89.4505 24.8299 88.9819 24.9356C88.5133 25.0413 87.9989 25.0942 87.4387 25.0942ZM96.1007 25.0942C95.0613 25.0942 94.1241 24.9621 93.2891 24.6978C92.4506 24.4336 91.7583 24.09 91.2121 23.6673L92.2163 21.6854C92.6743 22.073 93.2521 22.3936 93.9497 22.6473C94.6438 22.9045 95.3872 23.0331 96.18 23.0331C97.1665 23.0331 97.9117 22.8692 98.4155 22.5416C98.9158 22.2174 99.166 21.7999 99.166 21.289C99.166 20.9191 99.0744 20.5932 98.8911 20.3113C98.7044 20.0295 98.3644 19.7511 97.8711 19.4763C97.3779 19.205 96.6644 18.9108 95.7308 18.5937C94.4448 18.1533 93.4811 17.6283 92.8399 17.0188C92.1951 16.4128 91.8728 15.5725 91.8728 14.4979C91.8728 13.4409 92.3361 12.546 93.2627 11.8132C94.1858 11.0838 95.4665 10.7192 97.1048 10.7192C97.9857 10.7192 98.7696 10.8108 99.4566 10.994C100.144 11.1807 100.76 11.415 101.306 11.6969L100.646 13.6523C100.17 13.3705 99.6293 13.1414 99.0233 12.9653C98.4137 12.7891 97.739 12.701 96.9991 12.701C96.0831 12.701 95.3872 12.886 94.9116 13.2559C94.4359 13.6259 94.1981 14.0311 94.1981 14.4715C94.1981 14.8943 94.3831 15.2554 94.753 15.5549C95.123 15.8544 95.8453 16.1803 96.9199 16.5326C98.6639 17.1139 99.8794 17.7569 100.566 18.4616C101.254 19.1663 101.597 20.0471 101.597 21.1041C101.597 22.3372 101.1 23.3096 100.107 24.0213C99.1096 24.7366 97.7743 25.0942 96.1007 25.0942ZM110.264 25.0942C108.291 25.0942 106.729 24.4635 105.577 23.2022C104.421 21.9444 103.843 20.1792 103.843 17.9067C103.843 16.5326 104.104 15.303 104.625 14.2178C105.143 13.1362 105.869 12.2818 106.803 11.6546C107.736 11.031 108.82 10.7192 110.053 10.7192C111.374 10.7192 112.472 11.0046 113.345 11.5753C114.216 12.1496 114.871 12.9212 115.311 13.8901C115.752 14.859 115.972 15.9248 115.972 17.0875C115.972 17.7041 115.946 18.3031 115.893 18.8844H106.274C106.433 20.1704 106.882 21.1745 107.622 21.8968C108.362 22.6191 109.339 22.9802 110.555 22.9802C111.348 22.9802 112.061 22.8957 112.695 22.7265C113.33 22.5609 113.937 22.346 114.519 22.0818L115.074 24.1165C114.439 24.3983 113.726 24.6326 112.933 24.8194C112.14 25.0026 111.251 25.0942 110.264 25.0942ZM106.248 16.9554H113.779C113.779 15.6165 113.444 14.586 112.775 13.8637C112.105 13.1414 111.18 12.7803 110 12.7803C108.978 12.7803 108.133 13.1362 107.463 13.8479C106.794 14.5631 106.389 15.5989 106.248 16.9554ZM121.785 24.7771H119.407V13.5995H117.293V11.5383H119.407V9.92644C119.407 8.3762 119.839 7.15186 120.702 6.25342C121.565 5.35498 122.693 4.90576 124.084 4.90576C124.807 4.90576 125.441 4.98856 125.987 5.15415C126.533 5.32327 127.053 5.53114 127.546 5.77777L126.833 7.78605C126.463 7.59226 126.066 7.4161 125.643 7.25755C125.221 7.099 124.754 7.01973 124.243 7.01973C123.503 7.01973 122.908 7.25403 122.457 7.72263C122.009 8.1877 121.785 8.86946 121.785 9.76789V11.5383H125.855V13.5995H121.785V24.7771ZM130.717 24.7771H128.339V11.0363H130.717V24.7771ZM129.528 8.68448C129.07 8.68448 128.677 8.51713 128.349 8.18242C128.025 7.8477 127.863 7.46014 127.863 7.01973C127.863 6.50886 128.013 6.10368 128.312 5.8042C128.612 5.50472 129.017 5.35498 129.528 5.35498C129.986 5.35498 130.377 5.51705 130.701 5.84119C131.029 6.16886 131.193 6.56171 131.193 7.01973C131.193 7.51299 131.043 7.91288 130.743 8.21941C130.444 8.52946 130.039 8.68448 129.528 8.68448ZM139.749 25.0942C138.428 25.0942 137.385 24.6573 136.62 23.7835C135.852 22.9133 135.468 21.6678 135.468 20.0471V13.5995H133.09V11.5383H135.521L136.023 7.2047H137.846V11.5383H141.651V13.5995H137.846V20.232C137.846 21.2538 138.063 21.9673 138.496 22.3724C138.926 22.7776 139.441 22.9802 140.04 22.9802C140.48 22.9802 140.899 22.9097 141.297 22.7688C141.692 22.6279 142.057 22.4605 142.391 22.2667L143.052 24.1693C142.7 24.3807 142.224 24.5886 141.625 24.7929C141.026 24.9938 140.401 25.0942 139.749 25.0942Z" fill="white"/>
</svg>
